<?xml version="1.0" encoding="UTF-8" standalone="no"?>
<svg width="32" height="32" viewBox="0 0 32 32" xmlns="http://www.w3.org/2000/svg">
  <rect x="10" y="13" width="1" height="1" fill="rgba(0,0,0,1)" shape-rendering="crispEdges"/>
  <rect x="11" y="13" width="1" height="1" fill="rgba(203,219,252,1)" shape-rendering="crispEdges"/>
  <rect x="12" y="13" width="1" height="1" fill="rgba(155,173,183,1)" shape-rendering="crispEdges"/>
  <rect x="13" y="13" width="1" height="1" fill="rgba(0,0,0,1)" shape-rendering="crispEdges"/>
  <rect x="18" y="13" width="1" height="1" fill="rgba(0,0,0,1)" shape-rendering="crispEdges"/>
  <rect x="19" y="13" width="1" height="1" fill="rgba(203,219,252,1)" shape-rendering="crispEdges"/>
  <rect x="20" y="13" width="1" height="1" fill="rgba(155,173,183,1)" shape-rendering="crispEdges"/>
  <rect x="21" y="13" width="1" height="1" fill="rgba(0,0,0,1)" shape-rendering="crispEdges"/>
  <rect x="10" y="14" width="1" height="1" fill="rgba(0,0,0,1)" shape-rendering="crispEdges"/>
  <rect x="11" y="14" width="1" height="1" fill="rgba(203,219,252,1)" shape-rendering="crispEdges"/>
  <rect x="12" y="14" width="1" height="1" fill="rgba(155,173,183,1)" shape-rendering="crispEdges"/>
  <rect x="13" y="14" width="1" height="1" fill="rgba(0,0,0,1)" shape-rendering="crispEdges"/>
  <rect x="18" y="14" width="1" height="1" fill="rgba(0,0,0,1)" shape-rendering="crispEdges"/>
  <rect x="19" y="14" width="1" height="1" fill="rgba(203,219,252,1)" shape-rendering="crispEdges"/>
  <rect x="20" y="14" width="1" height="1" fill="rgba(155,173,183,1)" shape-rendering="crispEdges"/>
  <rect x="21" y="14" width="1" height="1" fill="rgba(0,0,0,1)" shape-rendering="crispEdges"/>
  <rect x="10" y="15" width="1" height="1" fill="rgba(0,0,0,1)" shape-rendering="crispEdges"/>
  <rect x="11" y="15" width="1" height="1" fill="rgba(203,219,252,1)" shape-rendering="crispEdges"/>
  <rect x="12" y="15" width="1" height="1" fill="rgba(155,173,183,1)" shape-rendering="crispEdges"/>
  <rect x="13" y="15" width="1" height="1" fill="rgba(0,0,0,1)" shape-rendering="crispEdges"/>
  <rect x="18" y="15" width="1" height="1" fill="rgba(0,0,0,1)" shape-rendering="crispEdges"/>
  <rect x="19" y="15" width="1" height="1" fill="rgba(203,219,252,1)" shape-rendering="crispEdges"/>
  <rect x="20" y="15" width="1" height="1" fill="rgba(155,173,183,1)" shape-rendering="crispEdges"/>
  <rect x="21" y="15" width="1" height="1" fill="rgba(0,0,0,1)" shape-rendering="crispEdges"/>
  <rect x="10" y="16" width="1" height="1" fill="rgba(0,0,0,1)" shape-rendering="crispEdges"/>
  <rect x="11" y="16" width="1" height="1" fill="rgba(203,219,252,1)" shape-rendering="crispEdges"/>
  <rect x="12" y="16" width="1" height="1" fill="rgba(155,173,183,1)" shape-rendering="crispEdges"/>
  <rect x="13" y="16" width="1" height="1" fill="rgba(0,0,0,1)" shape-rendering="crispEdges"/>
  <rect x="18" y="16" width="1" height="1" fill="rgba(0,0,0,1)" shape-rendering="crispEdges"/>
  <rect x="19" y="16" width="1" height="1" fill="rgba(203,219,252,1)" shape-rendering="crispEdges"/>
  <rect x="20" y="16" width="1" height="1" fill="rgba(155,173,183,1)" shape-rendering="crispEdges"/>
  <rect x="21" y="16" width="1" height="1" fill="rgba(0,0,0,1)" shape-rendering="crispEdges"/>
  <rect x="10" y="17" width="1" height="1" fill="rgba(0,0,0,1)" shape-rendering="crispEdges"/>
  <rect x="11" y="17" width="1" height="1" fill="rgba(203,219,252,1)" shape-rendering="crispEdges"/>
  <rect x="12" y="17" width="1" height="1" fill="rgba(155,173,183,1)" shape-rendering="crispEdges"/>
  <rect x="13" y="17" width="1" height="1" fill="rgba(0,0,0,1)" shape-rendering="crispEdges"/>
  <rect x="18" y="17" width="1" height="1" fill="rgba(0,0,0,1)" shape-rendering="crispEdges"/>
  <rect x="19" y="17" width="1" height="1" fill="rgba(203,219,252,1)" shape-rendering="crispEdges"/>
  <rect x="20" y="17" width="1" height="1" fill="rgba(155,173,183,1)" shape-rendering="crispEdges"/>
  <rect x="21" y="17" width="1" height="1" fill="rgba(0,0,0,1)" shape-rendering="crispEdges"/>
  <rect x="11" y="18" width="1" height="1" fill="rgba(0,0,0,1)" shape-rendering="crispEdges"/>
  <rect x="12" y="18" width="1" height="1" fill="rgba(115,62,57,1)" shape-rendering="crispEdges"/>
  <rect x="13" y="18" width="1" height="1" fill="rgba(0,0,0,1)" shape-rendering="crispEdges"/>
  <rect x="19" y="18" width="1" height="1" fill="rgba(0,0,0,1)" shape-rendering="crispEdges"/>
  <rect x="20" y="18" width="1" height="1" fill="rgba(62,39,49,1)" shape-rendering="crispEdges"/>
  <rect x="21" y="18" width="1" height="1" fill="rgba(0,0,0,1)" shape-rendering="crispEdges"/>
  <rect x="12" y="19" width="2" height="1" fill="rgba(0,0,0,1)" shape-rendering="crispEdges"/>
  <rect x="20" y="19" width="2" height="1" fill="rgba(0,0,0,1)" shape-rendering="crispEdges"/>
</svg>