<?xml version="1.0" encoding="UTF-8" standalone="no"?>
<svg width="15" height="9" viewBox="0 0 15 9" xmlns="http://www.w3.org/2000/svg">
  <rect x="3" y="0" width="9" height="1" fill="rgba(0,0,0,1)" shape-rendering="crispEdges"/>
  <rect x="2" y="1" width="1" height="1" fill="rgba(0,0,0,1)" shape-rendering="crispEdges"/>
  <rect x="3" y="1" width="8" height="1" fill="rgba(255,255,255,1)" shape-rendering="crispEdges"/>
  <rect x="11" y="1" width="1" height="1" fill="rgba(138,138,138,1)" shape-rendering="crispEdges"/>
  <rect x="12" y="1" width="1" height="1" fill="rgba(0,0,0,1)" shape-rendering="crispEdges"/>
  <rect x="1" y="2" width="1" height="1" fill="rgba(0,0,0,1)" shape-rendering="crispEdges"/>
  <rect x="2" y="2" width="1" height="1" fill="rgba(138,138,138,1)" shape-rendering="crispEdges"/>
  <rect x="3" y="2" width="8" height="1" fill="rgba(255,255,255,1)" shape-rendering="crispEdges"/>
  <rect x="11" y="2" width="1" height="1" fill="rgba(217,217,217,1)" shape-rendering="crispEdges"/>
  <rect x="12" y="2" width="1" height="1" fill="rgba(138,138,138,1)" shape-rendering="crispEdges"/>
  <rect x="13" y="2" width="1" height="1" fill="rgba(0,0,0,1)" shape-rendering="crispEdges"/>
  <rect x="0" y="3" width="1" height="1" fill="rgba(0,0,0,1)" shape-rendering="crispEdges"/>
  <rect x="1" y="3" width="1" height="1" fill="rgba(138,138,138,1)" shape-rendering="crispEdges"/>
  <rect x="2" y="3" width="1" height="1" fill="rgba(217,217,217,1)" shape-rendering="crispEdges"/>
  <rect x="3" y="3" width="2" height="1" fill="rgba(255,255,255,1)" shape-rendering="crispEdges"/>
  <rect x="5" y="3" width="2" height="1" fill="rgba(217,217,217,1)" shape-rendering="crispEdges"/>
  <rect x="7" y="3" width="3" height="1" fill="rgba(255,255,255,1)" shape-rendering="crispEdges"/>
  <rect x="10" y="3" width="1" height="1" fill="rgba(217,217,217,1)" shape-rendering="crispEdges"/>
  <rect x="11" y="3" width="1" height="1" fill="rgba(255,255,255,1)" shape-rendering="crispEdges"/>
  <rect x="12" y="3" width="1" height="1" fill="rgba(138,138,138,1)" shape-rendering="crispEdges"/>
  <rect x="14" y="3" width="1" height="1" fill="rgba(0,0,0,1)" shape-rendering="crispEdges"/>
  <rect x="1" y="4" width="1" height="1" fill="rgba(138,138,138,1)" shape-rendering="crispEdges"/>
  <rect x="2" y="4" width="8" height="1" fill="rgba(217,217,217,1)" shape-rendering="crispEdges"/>
  <rect x="10" y="4" width="4" height="1" fill="rgba(138,138,138,1)" shape-rendering="crispEdges"/>
  <rect x="14" y="4" width="1" height="1" fill="rgba(0,0,0,1)" shape-rendering="crispEdges"/>
  <rect x="2" y="5" width="8" height="1" fill="rgba(138,138,138,1)" shape-rendering="crispEdges"/>
  <rect x="11" y="5" width="4" height="1" fill="rgba(138,138,138,0.49)" shape-rendering="crispEdges"/>
  <rect x="11" y="6" width="3" height="1" fill="rgba(138,138,138,1)" shape-rendering="crispEdges"/>
  <rect x="12" y="7" width="2" height="1" fill="rgba(138,138,138,0.49)" shape-rendering="crispEdges"/>
  <rect x="12" y="8" width="2" height="1" fill="rgba(138,138,138,1)" shape-rendering="crispEdges"/>
</svg>