<?xml version="1.0" encoding="UTF-8" standalone="no"?>
<svg width="17" height="12" viewBox="0 0 17 12" xmlns="http://www.w3.org/2000/svg">
  <rect x="4" y="0" width="9" height="1" fill="rgba(28,30,33,1)" shape-rendering="crispEdges"/>
  <rect x="3" y="1" width="1" height="1" fill="rgba(28,30,33,1)" shape-rendering="crispEdges"/>
  <rect x="4" y="1" width="9" height="1" fill="rgba(255,255,255,1)" shape-rendering="crispEdges"/>
  <rect x="13" y="1" width="1" height="1" fill="rgba(28,30,33,1)" shape-rendering="crispEdges"/>
  <rect x="2" y="2" width="1" height="1" fill="rgba(28,30,33,1)" shape-rendering="crispEdges"/>
  <rect x="3" y="2" width="8" height="1" fill="rgba(255,255,255,1)" shape-rendering="crispEdges"/>
  <rect x="11" y="2" width="1" height="1" fill="rgba(217,217,217,1)" shape-rendering="crispEdges"/>
  <rect x="12" y="2" width="2" height="1" fill="rgba(255,255,255,1)" shape-rendering="crispEdges"/>
  <rect x="14" y="2" width="1" height="1" fill="rgba(28,30,33,1)" shape-rendering="crispEdges"/>
  <rect x="1" y="3" width="1" height="1" fill="rgba(28,30,33,1)" shape-rendering="crispEdges"/>
  <rect x="2" y="3" width="1" height="1" fill="rgba(217,217,217,1)" shape-rendering="crispEdges"/>
  <rect x="3" y="3" width="5" height="1" fill="rgba(255,255,255,1)" shape-rendering="crispEdges"/>
  <rect x="8" y="3" width="1" height="1" fill="rgba(217,217,217,1)" shape-rendering="crispEdges"/>
  <rect x="9" y="3" width="3" height="1" fill="rgba(255,255,255,1)" shape-rendering="crispEdges"/>
  <rect x="12" y="3" width="2" height="1" fill="rgba(217,217,217,1)" shape-rendering="crispEdges"/>
  <rect x="14" y="3" width="1" height="1" fill="rgba(255,255,255,1)" shape-rendering="crispEdges"/>
  <rect x="15" y="3" width="1" height="1" fill="rgba(28,30,33,1)" shape-rendering="crispEdges"/>
  <rect x="1" y="4" width="1" height="1" fill="rgba(28,30,33,1)" shape-rendering="crispEdges"/>
  <rect x="2" y="4" width="2" height="1" fill="rgba(217,217,217,1)" shape-rendering="crispEdges"/>
  <rect x="4" y="4" width="2" height="1" fill="rgba(255,255,255,1)" shape-rendering="crispEdges"/>
  <rect x="6" y="4" width="6" height="1" fill="rgba(217,217,217,1)" shape-rendering="crispEdges"/>
  <rect x="12" y="4" width="1" height="1" fill="rgba(255,255,255,1)" shape-rendering="crispEdges"/>
  <rect x="13" y="4" width="3" height="1" fill="rgba(217,217,217,1)" shape-rendering="crispEdges"/>
  <rect x="16" y="4" width="1" height="1" fill="rgba(28,30,33,1)" shape-rendering="crispEdges"/>
  <rect x="0" y="5" width="1" height="1" fill="rgba(28,30,33,1)" shape-rendering="crispEdges"/>
  <rect x="1" y="5" width="3" height="1" fill="rgba(217,217,217,1)" shape-rendering="crispEdges"/>
  <rect x="4" y="5" width="1" height="1" fill="rgba(138,138,138,1)" shape-rendering="crispEdges"/>
  <rect x="5" y="5" width="4" height="1" fill="rgba(217,217,217,1)" shape-rendering="crispEdges"/>
  <rect x="9" y="5" width="2" height="1" fill="rgba(138,138,138,1)" shape-rendering="crispEdges"/>
  <rect x="11" y="5" width="5" height="1" fill="rgba(217,217,217,1)" shape-rendering="crispEdges"/>
  <rect x="16" y="5" width="1" height="1" fill="rgba(28,30,33,1)" shape-rendering="crispEdges"/>
  <rect x="0" y="6" width="1" height="1" fill="rgba(28,30,33,1)" shape-rendering="crispEdges"/>
  <rect x="1" y="6" width="2" height="1" fill="rgba(217,217,217,1)" shape-rendering="crispEdges"/>
  <rect x="3" y="6" width="1" height="1" fill="rgba(138,138,138,1)" shape-rendering="crispEdges"/>
  <rect x="5" y="6" width="4" height="1" fill="rgba(138,138,138,1)" shape-rendering="crispEdges"/>
  <rect x="11" y="6" width="1" height="1" fill="rgba(138,138,138,1)" shape-rendering="crispEdges"/>
  <rect x="12" y="6" width="3" height="1" fill="rgba(217,217,217,1)" shape-rendering="crispEdges"/>
  <rect x="15" y="6" width="1" height="1" fill="rgba(138,138,138,1)" shape-rendering="crispEdges"/>
  <rect x="16" y="6" width="1" height="1" fill="rgba(28,30,33,1)" shape-rendering="crispEdges"/>
  <rect x="0" y="7" width="1" height="1" fill="rgba(28,30,33,1)" shape-rendering="crispEdges"/>
  <rect x="1" y="7" width="1" height="1" fill="rgba(217,217,217,1)" shape-rendering="crispEdges"/>
  <rect x="2" y="7" width="1" height="1" fill="rgba(138,138,138,1)" shape-rendering="crispEdges"/>
  <rect x="12" y="7" width="1" height="1" fill="rgba(138,138,138,1)" shape-rendering="crispEdges"/>
  <rect x="13" y="7" width="2" height="1" fill="rgba(217,217,217,1)" shape-rendering="crispEdges"/>
  <rect x="15" y="7" width="1" height="1" fill="rgba(138,138,138,1)" shape-rendering="crispEdges"/>
  <rect x="16" y="7" width="1" height="1" fill="rgba(28,30,33,1)" shape-rendering="crispEdges"/>
  <rect x="0" y="8" width="1" height="1" fill="rgba(28,30,33,1)" shape-rendering="crispEdges"/>
  <rect x="1" y="8" width="2" height="1" fill="rgba(138,138,138,1)" shape-rendering="crispEdges"/>
  <rect x="13" y="8" width="1" height="1" fill="rgba(138,138,138,1)" shape-rendering="crispEdges"/>
  <rect x="14" y="8" width="1" height="1" fill="rgba(217,217,217,1)" shape-rendering="crispEdges"/>
  <rect x="15" y="8" width="1" height="1" fill="rgba(138,138,138,1)" shape-rendering="crispEdges"/>
  <rect x="16" y="8" width="1" height="1" fill="rgba(28,30,33,1)" shape-rendering="crispEdges"/>
  <rect x="0" y="9" width="1" height="1" fill="rgba(28,30,33,1)" shape-rendering="crispEdges"/>
  <rect x="1" y="9" width="1" height="1" fill="rgba(138,138,138,1)" shape-rendering="crispEdges"/>
  <rect x="13" y="9" width="2" height="1" fill="rgba(138,138,138,1)" shape-rendering="crispEdges"/>
  <rect x="1" y="10" width="1" height="1" fill="rgba(138,138,138,1)" shape-rendering="crispEdges"/>
  <rect x="13" y="10" width="2" height="1" fill="rgba(138,138,138,1)" shape-rendering="crispEdges"/>
  <rect x="14" y="11" width="1" height="1" fill="rgba(138,138,138,1)" shape-rendering="crispEdges"/>
</svg>