<?xml version="1.0" encoding="UTF-8" standalone="no"?>
<svg width="29" height="22" viewBox="0 0 29 22" xmlns="http://www.w3.org/2000/svg">
  <rect x="6" y="3" width="4" height="1" fill="rgba(0,0,0,1)" shape-rendering="crispEdges"/>
  <rect x="19" y="3" width="5" height="1" fill="rgba(0,0,0,1)" shape-rendering="crispEdges"/>
  <rect x="5" y="4" width="1" height="1" fill="rgba(0,0,0,1)" shape-rendering="crispEdges"/>
  <rect x="6" y="4" width="4" height="1" fill="rgba(255,255,255,1)" shape-rendering="crispEdges"/>
  <rect x="10" y="4" width="1" height="1" fill="rgba(0,0,0,1)" shape-rendering="crispEdges"/>
  <rect x="18" y="4" width="1" height="1" fill="rgba(0,0,0,1)" shape-rendering="crispEdges"/>
  <rect x="19" y="4" width="5" height="1" fill="rgba(255,255,255,1)" shape-rendering="crispEdges"/>
  <rect x="24" y="4" width="1" height="1" fill="rgba(0,0,0,1)" shape-rendering="crispEdges"/>
  <rect x="4" y="5" width="1" height="1" fill="rgba(0,0,0,1)" shape-rendering="crispEdges"/>
  <rect x="5" y="5" width="4" height="1" fill="rgba(255,255,255,1)" shape-rendering="crispEdges"/>
  <rect x="9" y="5" width="2" height="1" fill="rgba(226,226,226,1)" shape-rendering="crispEdges"/>
  <rect x="11" y="5" width="1" height="1" fill="rgba(0,0,0,1)" shape-rendering="crispEdges"/>
  <rect x="17" y="5" width="1" height="1" fill="rgba(0,0,0,1)" shape-rendering="crispEdges"/>
  <rect x="18" y="5" width="1" height="1" fill="rgba(198,198,198,1)" shape-rendering="crispEdges"/>
  <rect x="19" y="5" width="5" height="1" fill="rgba(255,255,255,1)" shape-rendering="crispEdges"/>
  <rect x="24" y="5" width="1" height="1" fill="rgba(226,226,226,1)" shape-rendering="crispEdges"/>
  <rect x="25" y="5" width="1" height="1" fill="rgba(0,0,0,1)" shape-rendering="crispEdges"/>
  <rect x="4" y="6" width="1" height="1" fill="rgba(0,0,0,1)" shape-rendering="crispEdges"/>
  <rect x="5" y="6" width="3" height="1" fill="rgba(255,255,255,1)" shape-rendering="crispEdges"/>
  <rect x="8" y="6" width="2" height="1" fill="rgba(226,226,226,1)" shape-rendering="crispEdges"/>
  <rect x="10" y="6" width="7" height="1" fill="rgba(0,0,0,1)" shape-rendering="crispEdges"/>
  <rect x="17" y="6" width="2" height="1" fill="rgba(198,198,198,1)" shape-rendering="crispEdges"/>
  <rect x="19" y="6" width="5" height="1" fill="rgba(255,255,255,1)" shape-rendering="crispEdges"/>
  <rect x="24" y="6" width="1" height="1" fill="rgba(226,226,226,1)" shape-rendering="crispEdges"/>
  <rect x="25" y="6" width="1" height="1" fill="rgba(0,0,0,1)" shape-rendering="crispEdges"/>
  <rect x="4" y="7" width="1" height="1" fill="rgba(0,0,0,1)" shape-rendering="crispEdges"/>
  <rect x="5" y="7" width="1" height="1" fill="rgba(226,226,226,1)" shape-rendering="crispEdges"/>
  <rect x="6" y="7" width="1" height="1" fill="rgba(255,255,255,1)" shape-rendering="crispEdges"/>
  <rect x="7" y="7" width="1" height="1" fill="rgba(226,226,226,1)" shape-rendering="crispEdges"/>
  <rect x="8" y="7" width="2" height="1" fill="rgba(0,0,0,1)" shape-rendering="crispEdges"/>
  <rect x="10" y="7" width="2" height="1" fill="rgba(226,226,226,1)" shape-rendering="crispEdges"/>
  <rect x="12" y="7" width="3" height="1" fill="rgba(255,255,255,1)" shape-rendering="crispEdges"/>
  <rect x="15" y="7" width="1" height="1" fill="rgba(226,226,226,1)" shape-rendering="crispEdges"/>
  <rect x="16" y="7" width="1" height="1" fill="rgba(255,255,255,1)" shape-rendering="crispEdges"/>
  <rect x="17" y="7" width="1" height="1" fill="rgba(198,198,198,1)" shape-rendering="crispEdges"/>
  <rect x="18" y="7" width="5" height="1" fill="rgba(255,255,255,1)" shape-rendering="crispEdges"/>
  <rect x="23" y="7" width="2" height="1" fill="rgba(226,226,226,1)" shape-rendering="crispEdges"/>
  <rect x="25" y="7" width="1" height="1" fill="rgba(0,0,0,1)" shape-rendering="crispEdges"/>
  <rect x="4" y="8" width="1" height="1" fill="rgba(0,0,0,1)" shape-rendering="crispEdges"/>
  <rect x="5" y="8" width="2" height="1" fill="rgba(226,226,226,1)" shape-rendering="crispEdges"/>
  <rect x="7" y="8" width="1" height="1" fill="rgba(0,0,0,1)" shape-rendering="crispEdges"/>
  <rect x="8" y="8" width="2" height="1" fill="rgba(226,226,226,1)" shape-rendering="crispEdges"/>
  <rect x="10" y="8" width="12" height="1" fill="rgba(255,255,255,1)" shape-rendering="crispEdges"/>
  <rect x="22" y="8" width="3" height="1" fill="rgba(226,226,226,1)" shape-rendering="crispEdges"/>
  <rect x="25" y="8" width="1" height="1" fill="rgba(0,0,0,1)" shape-rendering="crispEdges"/>
  <rect x="4" y="9" width="1" height="1" fill="rgba(0,0,0,1)" shape-rendering="crispEdges"/>
  <rect x="5" y="9" width="1" height="1" fill="rgba(198,198,198,1)" shape-rendering="crispEdges"/>
  <rect x="6" y="9" width="1" height="1" fill="rgba(0,0,0,1)" shape-rendering="crispEdges"/>
  <rect x="7" y="9" width="1" height="1" fill="rgba(198,198,198,1)" shape-rendering="crispEdges"/>
  <rect x="8" y="9" width="12" height="1" fill="rgba(255,255,255,1)" shape-rendering="crispEdges"/>
  <rect x="20" y="9" width="1" height="1" fill="rgba(198,198,198,1)" shape-rendering="crispEdges"/>
  <rect x="21" y="9" width="3" height="1" fill="rgba(226,226,226,1)" shape-rendering="crispEdges"/>
  <rect x="24" y="9" width="1" height="1" fill="rgba(0,0,0,1)" shape-rendering="crispEdges"/>
  <rect x="5" y="10" width="2" height="1" fill="rgba(0,0,0,1)" shape-rendering="crispEdges"/>
  <rect x="7" y="10" width="1" height="1" fill="rgba(226,226,226,1)" shape-rendering="crispEdges"/>
  <rect x="8" y="10" width="1" height="1" fill="rgba(198,198,198,1)" shape-rendering="crispEdges"/>
  <rect x="9" y="10" width="11" height="1" fill="rgba(255,255,255,1)" shape-rendering="crispEdges"/>
  <rect x="20" y="10" width="1" height="1" fill="rgba(226,226,226,1)" shape-rendering="crispEdges"/>
  <rect x="21" y="10" width="2" height="1" fill="rgba(198,198,198,1)" shape-rendering="crispEdges"/>
  <rect x="23" y="10" width="1" height="1" fill="rgba(0,0,0,1)" shape-rendering="crispEdges"/>
  <rect x="5" y="11" width="1" height="1" fill="rgba(0,0,0,1)" shape-rendering="crispEdges"/>
  <rect x="6" y="11" width="1" height="1" fill="rgba(226,226,226,1)" shape-rendering="crispEdges"/>
  <rect x="7" y="11" width="1" height="1" fill="rgba(198,198,198,1)" shape-rendering="crispEdges"/>
  <rect x="8" y="11" width="12" height="1" fill="rgba(255,255,255,1)" shape-rendering="crispEdges"/>
  <rect x="20" y="11" width="2" height="1" fill="rgba(226,226,226,1)" shape-rendering="crispEdges"/>
  <rect x="22" y="11" width="1" height="1" fill="rgba(198,198,198,1)" shape-rendering="crispEdges"/>
  <rect x="23" y="11" width="1" height="1" fill="rgba(0,0,0,1)" shape-rendering="crispEdges"/>
  <rect x="5" y="12" width="1" height="1" fill="rgba(0,0,0,1)" shape-rendering="crispEdges"/>
  <rect x="6" y="12" width="1" height="1" fill="rgba(226,226,226,1)" shape-rendering="crispEdges"/>
  <rect x="7" y="12" width="1" height="1" fill="rgba(198,198,198,1)" shape-rendering="crispEdges"/>
  <rect x="8" y="12" width="12" height="1" fill="rgba(255,255,255,1)" shape-rendering="crispEdges"/>
  <rect x="20" y="12" width="1" height="1" fill="rgba(198,198,198,1)" shape-rendering="crispEdges"/>
  <rect x="21" y="12" width="2" height="1" fill="rgba(226,226,226,1)" shape-rendering="crispEdges"/>
  <rect x="23" y="12" width="1" height="1" fill="rgba(0,0,0,1)" shape-rendering="crispEdges"/>
  <rect x="5" y="13" width="1" height="1" fill="rgba(0,0,0,1)" shape-rendering="crispEdges"/>
  <rect x="6" y="13" width="1" height="1" fill="rgba(198,198,198,1)" shape-rendering="crispEdges"/>
  <rect x="7" y="13" width="8" height="1" fill="rgba(255,255,255,1)" shape-rendering="crispEdges"/>
  <rect x="15" y="13" width="1" height="1" fill="rgba(198,198,198,1)" shape-rendering="crispEdges"/>
  <rect x="16" y="13" width="4" height="1" fill="rgba(255,255,255,1)" shape-rendering="crispEdges"/>
  <rect x="20" y="13" width="1" height="1" fill="rgba(198,198,198,1)" shape-rendering="crispEdges"/>
  <rect x="21" y="13" width="2" height="1" fill="rgba(226,226,226,1)" shape-rendering="crispEdges"/>
  <rect x="23" y="13" width="1" height="1" fill="rgba(0,0,0,1)" shape-rendering="crispEdges"/>
  <rect x="5" y="14" width="1" height="1" fill="rgba(0,0,0,1)" shape-rendering="crispEdges"/>
  <rect x="6" y="14" width="1" height="1" fill="rgba(198,198,198,1)" shape-rendering="crispEdges"/>
  <rect x="7" y="14" width="7" height="1" fill="rgba(255,255,255,1)" shape-rendering="crispEdges"/>
  <rect x="14" y="14" width="3" height="1" fill="rgba(198,198,198,1)" shape-rendering="crispEdges"/>
  <rect x="17" y="14" width="3" height="1" fill="rgba(255,255,255,1)" shape-rendering="crispEdges"/>
  <rect x="20" y="14" width="1" height="1" fill="rgba(198,198,198,1)" shape-rendering="crispEdges"/>
  <rect x="21" y="14" width="2" height="1" fill="rgba(226,226,226,1)" shape-rendering="crispEdges"/>
  <rect x="23" y="14" width="1" height="1" fill="rgba(0,0,0,1)" shape-rendering="crispEdges"/>
  <rect x="5" y="15" width="1" height="1" fill="rgba(0,0,0,1)" shape-rendering="crispEdges"/>
  <rect x="6" y="15" width="9" height="1" fill="rgba(198,198,198,1)" shape-rendering="crispEdges"/>
  <rect x="16" y="15" width="4" height="1" fill="rgba(198,198,198,1)" shape-rendering="crispEdges"/>
  <rect x="20" y="15" width="2" height="1" fill="rgba(226,226,226,1)" shape-rendering="crispEdges"/>
  <rect x="22" y="15" width="1" height="1" fill="rgba(198,198,198,1)" shape-rendering="crispEdges"/>
  <rect x="23" y="15" width="1" height="1" fill="rgba(0,0,0,1)" shape-rendering="crispEdges"/>
  <rect x="5" y="16" width="1" height="1" fill="rgba(0,0,0,1)" shape-rendering="crispEdges"/>
  <rect x="6" y="16" width="2" height="1" fill="rgba(198,198,198,1)" shape-rendering="crispEdges"/>
  <rect x="18" y="16" width="5" height="1" fill="rgba(198,198,198,1)" shape-rendering="crispEdges"/>
  <rect x="23" y="16" width="1" height="1" fill="rgba(0,0,0,1)" shape-rendering="crispEdges"/>
  <rect x="6" y="17" width="1" height="1" fill="rgba(0,0,0,1)" shape-rendering="crispEdges"/>
  <rect x="7" y="17" width="1" height="1" fill="rgba(198,198,198,1)" shape-rendering="crispEdges"/>
  <rect x="18" y="17" width="2" height="1" fill="rgba(198,198,198,1)" shape-rendering="crispEdges"/>
  <rect x="6" y="18" width="1" height="1" fill="rgba(0,0,0,1)" shape-rendering="crispEdges"/>
  <rect x="7" y="18" width="1" height="1" fill="rgba(198,198,198,1)" shape-rendering="crispEdges"/>
  <rect x="18" y="18" width="2" height="1" fill="rgba(198,198,198,1)" shape-rendering="crispEdges"/>
  <rect x="6" y="19" width="1" height="1" fill="rgba(0,0,0,1)" shape-rendering="crispEdges"/>
  <rect x="7" y="19" width="1" height="1" fill="rgba(198,198,198,1)" shape-rendering="crispEdges"/>
  <rect x="18" y="19" width="2" height="1" fill="rgba(198,198,198,1)" shape-rendering="crispEdges"/>
  <rect x="7" y="20" width="1" height="1" fill="rgba(198,198,198,1)" shape-rendering="crispEdges"/>
  <rect x="18" y="20" width="2" height="1" fill="rgba(198,198,198,1)" shape-rendering="crispEdges"/>
  <rect x="7" y="21" width="1" height="1" fill="rgba(198,198,198,1)" shape-rendering="crispEdges"/>
  <rect x="18" y="21" width="1" height="1" fill="rgba(198,198,198,1)" shape-rendering="crispEdges"/>
</svg>