<?xml version="1.0" encoding="UTF-8" standalone="no"?>
<svg width="24" height="18" viewBox="0 0 24 18" xmlns="http://www.w3.org/2000/svg">
  <rect x="7" y="0" width="3" height="1" fill="rgba(0,0,0,1)" shape-rendering="crispEdges"/>
  <rect x="7" y="1" width="1" height="1" fill="rgba(0,0,0,1)" shape-rendering="crispEdges"/>
  <rect x="8" y="1" width="2" height="1" fill="rgba(255,255,255,1)" shape-rendering="crispEdges"/>
  <rect x="10" y="1" width="2" height="1" fill="rgba(0,0,0,1)" shape-rendering="crispEdges"/>
  <rect x="8" y="2" width="1" height="1" fill="rgba(0,0,0,1)" shape-rendering="crispEdges"/>
  <rect x="9" y="2" width="3" height="1" fill="rgba(255,255,255,1)" shape-rendering="crispEdges"/>
  <rect x="12" y="2" width="5" height="1" fill="rgba(0,0,0,1)" shape-rendering="crispEdges"/>
  <rect x="7" y="3" width="3" height="1" fill="rgba(0,0,0,1)" shape-rendering="crispEdges"/>
  <rect x="10" y="3" width="7" height="1" fill="rgba(255,255,255,1)" shape-rendering="crispEdges"/>
  <rect x="17" y="3" width="1" height="1" fill="rgba(0,0,0,1)" shape-rendering="crispEdges"/>
  <rect x="5" y="4" width="2" height="1" fill="rgba(0,0,0,1)" shape-rendering="crispEdges"/>
  <rect x="7" y="4" width="11" height="1" fill="rgba(255,255,255,1)" shape-rendering="crispEdges"/>
  <rect x="18" y="4" width="2" height="1" fill="rgba(0,0,0,1)" shape-rendering="crispEdges"/>
  <rect x="4" y="5" width="1" height="1" fill="rgba(0,0,0,1)" shape-rendering="crispEdges"/>
  <rect x="5" y="5" width="14" height="1" fill="rgba(255,255,255,1)" shape-rendering="crispEdges"/>
  <rect x="19" y="5" width="1" height="1" fill="rgba(226,226,226,1)" shape-rendering="crispEdges"/>
  <rect x="20" y="5" width="1" height="1" fill="rgba(0,0,0,1)" shape-rendering="crispEdges"/>
  <rect x="3" y="6" width="1" height="1" fill="rgba(0,0,0,1)" shape-rendering="crispEdges"/>
  <rect x="4" y="6" width="4" height="1" fill="rgba(255,255,255,1)" shape-rendering="crispEdges"/>
  <rect x="8" y="6" width="1" height="1" fill="rgba(226,226,226,1)" shape-rendering="crispEdges"/>
  <rect x="9" y="6" width="9" height="1" fill="rgba(255,255,255,1)" shape-rendering="crispEdges"/>
  <rect x="18" y="6" width="2" height="1" fill="rgba(226,226,226,1)" shape-rendering="crispEdges"/>
  <rect x="20" y="6" width="1" height="1" fill="rgba(0,0,0,1)" shape-rendering="crispEdges"/>
  <rect x="2" y="7" width="1" height="1" fill="rgba(0,0,0,1)" shape-rendering="crispEdges"/>
  <rect x="3" y="7" width="4" height="1" fill="rgba(255,255,255,1)" shape-rendering="crispEdges"/>
  <rect x="7" y="7" width="1" height="1" fill="rgba(226,226,226,1)" shape-rendering="crispEdges"/>
  <rect x="8" y="7" width="11" height="1" fill="rgba(255,255,255,1)" shape-rendering="crispEdges"/>
  <rect x="19" y="7" width="2" height="1" fill="rgba(226,226,226,1)" shape-rendering="crispEdges"/>
  <rect x="21" y="7" width="1" height="1" fill="rgba(0,0,0,1)" shape-rendering="crispEdges"/>
  <rect x="2" y="8" width="1" height="1" fill="rgba(0,0,0,1)" shape-rendering="crispEdges"/>
  <rect x="3" y="8" width="3" height="1" fill="rgba(255,255,255,1)" shape-rendering="crispEdges"/>
  <rect x="6" y="8" width="1" height="1" fill="rgba(226,226,226,1)" shape-rendering="crispEdges"/>
  <rect x="7" y="8" width="2" height="1" fill="rgba(255,255,255,1)" shape-rendering="crispEdges"/>
  <rect x="9" y="8" width="2" height="1" fill="rgba(242,242,242,1)" shape-rendering="crispEdges"/>
  <rect x="11" y="8" width="3" height="1" fill="rgba(255,255,255,1)" shape-rendering="crispEdges"/>
  <rect x="14" y="8" width="1" height="1" fill="rgba(226,226,226,1)" shape-rendering="crispEdges"/>
  <rect x="15" y="8" width="3" height="1" fill="rgba(255,255,255,1)" shape-rendering="crispEdges"/>
  <rect x="18" y="8" width="3" height="1" fill="rgba(226,226,226,1)" shape-rendering="crispEdges"/>
  <rect x="21" y="8" width="1" height="1" fill="rgba(0,0,0,1)" shape-rendering="crispEdges"/>
  <rect x="1" y="9" width="1" height="1" fill="rgba(0,0,0,1)" shape-rendering="crispEdges"/>
  <rect x="2" y="9" width="3" height="1" fill="rgba(255,255,255,1)" shape-rendering="crispEdges"/>
  <rect x="5" y="9" width="1" height="1" fill="rgba(226,226,226,1)" shape-rendering="crispEdges"/>
  <rect x="6" y="9" width="1" height="1" fill="rgba(255,255,255,1)" shape-rendering="crispEdges"/>
  <rect x="7" y="9" width="1" height="1" fill="rgba(242,242,242,1)" shape-rendering="crispEdges"/>
  <rect x="8" y="9" width="1" height="1" fill="rgba(255,255,255,1)" shape-rendering="crispEdges"/>
  <rect x="9" y="9" width="2" height="1" fill="rgba(242,242,242,1)" shape-rendering="crispEdges"/>
  <rect x="11" y="9" width="1" height="1" fill="rgba(226,226,226,1)" shape-rendering="crispEdges"/>
  <rect x="12" y="9" width="3" height="1" fill="rgba(255,255,255,1)" shape-rendering="crispEdges"/>
  <rect x="15" y="9" width="1" height="1" fill="rgba(226,226,226,1)" shape-rendering="crispEdges"/>
  <rect x="16" y="9" width="1" height="1" fill="rgba(242,242,242,1)" shape-rendering="crispEdges"/>
  <rect x="17" y="9" width="1" height="1" fill="rgba(255,255,255,1)" shape-rendering="crispEdges"/>
  <rect x="18" y="9" width="3" height="1" fill="rgba(226,226,226,1)" shape-rendering="crispEdges"/>
  <rect x="21" y="9" width="1" height="1" fill="rgba(198,198,198,1)" shape-rendering="crispEdges"/>
  <rect x="22" y="9" width="1" height="1" fill="rgba(0,0,0,1)" shape-rendering="crispEdges"/>
  <rect x="0" y="10" width="1" height="1" fill="rgba(0,0,0,1)" shape-rendering="crispEdges"/>
  <rect x="1" y="10" width="2" height="1" fill="rgba(255,255,255,1)" shape-rendering="crispEdges"/>
  <rect x="3" y="10" width="2" height="1" fill="rgba(242,242,242,1)" shape-rendering="crispEdges"/>
  <rect x="5" y="10" width="1" height="1" fill="rgba(226,226,226,1)" shape-rendering="crispEdges"/>
  <rect x="6" y="10" width="1" height="1" fill="rgba(255,255,255,1)" shape-rendering="crispEdges"/>
  <rect x="7" y="10" width="2" height="1" fill="rgba(242,242,242,1)" shape-rendering="crispEdges"/>
  <rect x="9" y="10" width="1" height="1" fill="rgba(198,198,198,1)" shape-rendering="crispEdges"/>
  <rect x="10" y="10" width="2" height="1" fill="rgba(242,242,242,1)" shape-rendering="crispEdges"/>
  <rect x="12" y="10" width="1" height="1" fill="rgba(226,226,226,1)" shape-rendering="crispEdges"/>
  <rect x="13" y="10" width="2" height="1" fill="rgba(255,255,255,1)" shape-rendering="crispEdges"/>
  <rect x="15" y="10" width="1" height="1" fill="rgba(242,242,242,1)" shape-rendering="crispEdges"/>
  <rect x="16" y="10" width="4" height="1" fill="rgba(226,226,226,1)" shape-rendering="crispEdges"/>
  <rect x="20" y="10" width="2" height="1" fill="rgba(198,198,198,1)" shape-rendering="crispEdges"/>
  <rect x="22" y="10" width="1" height="1" fill="rgba(0,0,0,1)" shape-rendering="crispEdges"/>
  <rect x="1" y="11" width="1" height="1" fill="rgba(0,0,0,1)" shape-rendering="crispEdges"/>
  <rect x="2" y="11" width="1" height="1" fill="rgba(255,255,255,1)" shape-rendering="crispEdges"/>
  <rect x="3" y="11" width="1" height="1" fill="rgba(242,242,242,1)" shape-rendering="crispEdges"/>
  <rect x="4" y="11" width="1" height="1" fill="rgba(226,226,226,1)" shape-rendering="crispEdges"/>
  <rect x="5" y="11" width="1" height="1" fill="rgba(255,255,255,1)" shape-rendering="crispEdges"/>
  <rect x="6" y="11" width="1" height="1" fill="rgba(198,198,198,1)" shape-rendering="crispEdges"/>
  <rect x="7" y="11" width="2" height="1" fill="rgba(242,242,242,1)" shape-rendering="crispEdges"/>
  <rect x="9" y="11" width="2" height="1" fill="rgba(198,198,198,1)" shape-rendering="crispEdges"/>
  <rect x="11" y="11" width="2" height="1" fill="rgba(242,242,242,1)" shape-rendering="crispEdges"/>
  <rect x="13" y="11" width="1" height="1" fill="rgba(226,226,226,1)" shape-rendering="crispEdges"/>
  <rect x="14" y="11" width="1" height="1" fill="rgba(255,255,255,1)" shape-rendering="crispEdges"/>
  <rect x="15" y="11" width="7" height="1" fill="rgba(198,198,198,1)" shape-rendering="crispEdges"/>
  <rect x="22" y="11" width="1" height="1" fill="rgba(0,0,0,1)" shape-rendering="crispEdges"/>
  <rect x="1" y="12" width="1" height="1" fill="rgba(0,0,0,1)" shape-rendering="crispEdges"/>
  <rect x="2" y="12" width="2" height="1" fill="rgba(242,242,242,1)" shape-rendering="crispEdges"/>
  <rect x="4" y="12" width="1" height="1" fill="rgba(226,226,226,1)" shape-rendering="crispEdges"/>
  <rect x="5" y="12" width="1" height="1" fill="rgba(198,198,198,1)" shape-rendering="crispEdges"/>
  <rect x="6" y="12" width="2" height="1" fill="rgba(242,242,242,1)" shape-rendering="crispEdges"/>
  <rect x="8" y="12" width="2" height="1" fill="rgba(198,198,198,1)" shape-rendering="crispEdges"/>
  <rect x="11" y="12" width="3" height="1" fill="rgba(198,198,198,1)" shape-rendering="crispEdges"/>
  <rect x="14" y="12" width="1" height="1" fill="rgba(214,214,214,1)" shape-rendering="crispEdges"/>
  <rect x="15" y="12" width="7" height="1" fill="rgba(198,198,198,1)" shape-rendering="crispEdges"/>
  <rect x="22" y="12" width="1" height="1" fill="rgba(0,0,0,1)" shape-rendering="crispEdges"/>
  <rect x="1" y="13" width="1" height="1" fill="rgba(0,0,0,1)" shape-rendering="crispEdges"/>
  <rect x="2" y="13" width="1" height="1" fill="rgba(242,242,242,1)" shape-rendering="crispEdges"/>
  <rect x="3" y="13" width="1" height="1" fill="rgba(226,226,226,1)" shape-rendering="crispEdges"/>
  <rect x="4" y="13" width="1" height="1" fill="rgba(255,255,255,1)" shape-rendering="crispEdges"/>
  <rect x="5" y="13" width="1" height="1" fill="rgba(198,198,198,1)" shape-rendering="crispEdges"/>
  <rect x="6" y="13" width="1" height="1" fill="rgba(242,242,242,1)" shape-rendering="crispEdges"/>
  <rect x="7" y="13" width="2" height="1" fill="rgba(198,198,198,1)" shape-rendering="crispEdges"/>
  <rect x="14" y="13" width="8" height="1" fill="rgba(198,198,198,1)" shape-rendering="crispEdges"/>
  <rect x="22" y="13" width="1" height="1" fill="rgba(0,0,0,1)" shape-rendering="crispEdges"/>
  <rect x="2" y="14" width="1" height="1" fill="rgba(0,0,0,1)" shape-rendering="crispEdges"/>
  <rect x="3" y="14" width="1" height="1" fill="rgba(214,214,214,1)" shape-rendering="crispEdges"/>
  <rect x="4" y="14" width="1" height="1" fill="rgba(198,198,198,1)" shape-rendering="crispEdges"/>
  <rect x="5" y="14" width="1" height="1" fill="rgba(214,214,214,1)" shape-rendering="crispEdges"/>
  <rect x="6" y="14" width="2" height="1" fill="rgba(198,198,198,1)" shape-rendering="crispEdges"/>
  <rect x="14" y="14" width="7" height="1" fill="rgba(198,198,198,1)" shape-rendering="crispEdges"/>
  <rect x="21" y="14" width="1" height="1" fill="rgba(0,0,0,1)" shape-rendering="crispEdges"/>
  <rect x="2" y="15" width="1" height="1" fill="rgba(0,0,0,1)" shape-rendering="crispEdges"/>
  <rect x="3" y="15" width="1" height="1" fill="rgba(214,214,214,1)" shape-rendering="crispEdges"/>
  <rect x="4" y="15" width="3" height="1" fill="rgba(198,198,198,1)" shape-rendering="crispEdges"/>
  <rect x="15" y="15" width="1" height="1" fill="rgba(198,198,198,1)" shape-rendering="crispEdges"/>
  <rect x="2" y="16" width="1" height="1" fill="rgba(0,0,0,1)" shape-rendering="crispEdges"/>
  <rect x="3" y="16" width="3" height="1" fill="rgba(198,198,198,1)" shape-rendering="crispEdges"/>
  <rect x="4" y="17" width="2" height="1" fill="rgba(198,198,198,1)" shape-rendering="crispEdges"/>
</svg>