<?xml version="1.0" encoding="UTF-8" standalone="no"?>
<svg width="19" height="20" viewBox="0 0 19 20" xmlns="http://www.w3.org/2000/svg">
  <rect x="9" y="0" width="4" height="1" fill="rgba(0,0,0,1)" shape-rendering="crispEdges"/>
  <rect x="8" y="1" width="1" height="1" fill="rgba(0,0,0,1)" shape-rendering="crispEdges"/>
  <rect x="9" y="1" width="1" height="1" fill="rgba(182,182,182,1)" shape-rendering="crispEdges"/>
  <rect x="10" y="1" width="1" height="1" fill="rgba(157,155,155,1)" shape-rendering="crispEdges"/>
  <rect x="11" y="1" width="2" height="1" fill="rgba(119,119,119,1)" shape-rendering="crispEdges"/>
  <rect x="13" y="1" width="1" height="1" fill="rgba(0,0,0,1)" shape-rendering="crispEdges"/>
  <rect x="6" y="2" width="8" height="1" fill="rgba(0,0,0,1)" shape-rendering="crispEdges"/>
  <rect x="4" y="3" width="2" height="1" fill="rgba(0,0,0,1)" shape-rendering="crispEdges"/>
  <rect x="6" y="3" width="3" height="1" fill="rgba(182,182,182,1)" shape-rendering="crispEdges"/>
  <rect x="9" y="3" width="4" height="1" fill="rgba(157,155,155,1)" shape-rendering="crispEdges"/>
  <rect x="13" y="3" width="2" height="1" fill="rgba(0,0,0,1)" shape-rendering="crispEdges"/>
  <rect x="3" y="4" width="1" height="1" fill="rgba(0,0,0,1)" shape-rendering="crispEdges"/>
  <rect x="4" y="4" width="4" height="1" fill="rgba(182,182,182,1)" shape-rendering="crispEdges"/>
  <rect x="8" y="4" width="7" height="1" fill="rgba(157,155,155,1)" shape-rendering="crispEdges"/>
  <rect x="15" y="4" width="1" height="1" fill="rgba(0,0,0,1)" shape-rendering="crispEdges"/>
  <rect x="2" y="5" width="1" height="1" fill="rgba(0,0,0,1)" shape-rendering="crispEdges"/>
  <rect x="3" y="5" width="3" height="1" fill="rgba(182,182,182,1)" shape-rendering="crispEdges"/>
  <rect x="6" y="5" width="4" height="1" fill="rgba(19,19,19,1)" shape-rendering="crispEdges"/>
  <rect x="10" y="5" width="2" height="1" fill="rgba(119,119,119,1)" shape-rendering="crispEdges"/>
  <rect x="12" y="5" width="4" height="1" fill="rgba(157,155,155,1)" shape-rendering="crispEdges"/>
  <rect x="16" y="5" width="1" height="1" fill="rgba(0,0,0,1)" shape-rendering="crispEdges"/>
  <rect x="2" y="6" width="1" height="1" fill="rgba(0,0,0,1)" shape-rendering="crispEdges"/>
  <rect x="3" y="6" width="1" height="1" fill="rgba(182,182,182,1)" shape-rendering="crispEdges"/>
  <rect x="4" y="6" width="1" height="1" fill="rgba(119,119,119,1)" shape-rendering="crispEdges"/>
  <rect x="5" y="6" width="1" height="1" fill="rgba(19,19,19,1)" shape-rendering="crispEdges"/>
  <rect x="6" y="6" width="4" height="1" fill="rgba(171,171,171,1)" shape-rendering="crispEdges"/>
  <rect x="10" y="6" width="2" height="1" fill="rgba(19,19,19,1)" shape-rendering="crispEdges"/>
  <rect x="12" y="6" width="2" height="1" fill="rgba(119,119,119,1)" shape-rendering="crispEdges"/>
  <rect x="14" y="6" width="3" height="1" fill="rgba(157,155,155,1)" shape-rendering="crispEdges"/>
  <rect x="17" y="6" width="1" height="1" fill="rgba(0,0,0,1)" shape-rendering="crispEdges"/>
  <rect x="1" y="7" width="1" height="1" fill="rgba(0,0,0,1)" shape-rendering="crispEdges"/>
  <rect x="2" y="7" width="1" height="1" fill="rgba(157,155,155,1)" shape-rendering="crispEdges"/>
  <rect x="3" y="7" width="1" height="1" fill="rgba(119,119,119,1)" shape-rendering="crispEdges"/>
  <rect x="4" y="7" width="1" height="1" fill="rgba(19,19,19,1)" shape-rendering="crispEdges"/>
  <rect x="5" y="7" width="2" height="1" fill="rgba(171,171,171,1)" shape-rendering="crispEdges"/>
  <rect x="7" y="7" width="5" height="1" fill="rgba(133,133,133,1)" shape-rendering="crispEdges"/>
  <rect x="12" y="7" width="1" height="1" fill="rgba(19,19,19,1)" shape-rendering="crispEdges"/>
  <rect x="13" y="7" width="2" height="1" fill="rgba(119,119,119,1)" shape-rendering="crispEdges"/>
  <rect x="15" y="7" width="2" height="1" fill="rgba(157,155,155,1)" shape-rendering="crispEdges"/>
  <rect x="17" y="7" width="1" height="1" fill="rgba(0,0,0,1)" shape-rendering="crispEdges"/>
  <rect x="1" y="8" width="1" height="1" fill="rgba(0,0,0,1)" shape-rendering="crispEdges"/>
  <rect x="2" y="8" width="1" height="1" fill="rgba(119,119,119,1)" shape-rendering="crispEdges"/>
  <rect x="3" y="8" width="1" height="1" fill="rgba(19,19,19,1)" shape-rendering="crispEdges"/>
  <rect x="4" y="8" width="3" height="1" fill="rgba(171,171,171,1)" shape-rendering="crispEdges"/>
  <rect x="7" y="8" width="6" height="1" fill="rgba(133,133,133,1)" shape-rendering="crispEdges"/>
  <rect x="13" y="8" width="2" height="1" fill="rgba(19,19,19,1)" shape-rendering="crispEdges"/>
  <rect x="15" y="8" width="1" height="1" fill="rgba(119,119,119,1)" shape-rendering="crispEdges"/>
  <rect x="16" y="8" width="1" height="1" fill="rgba(157,155,155,1)" shape-rendering="crispEdges"/>
  <rect x="17" y="8" width="1" height="1" fill="rgba(0,0,0,1)" shape-rendering="crispEdges"/>
  <rect x="1" y="9" width="1" height="1" fill="rgba(0,0,0,1)" shape-rendering="crispEdges"/>
  <rect x="2" y="9" width="1" height="1" fill="rgba(19,19,19,1)" shape-rendering="crispEdges"/>
  <rect x="3" y="9" width="2" height="1" fill="rgba(171,171,171,1)" shape-rendering="crispEdges"/>
  <rect x="5" y="9" width="1" height="1" fill="rgba(22,22,22,1)" shape-rendering="crispEdges"/>
  <rect x="6" y="9" width="2" height="1" fill="rgba(133,133,133,1)" shape-rendering="crispEdges"/>
  <rect x="8" y="9" width="1" height="1" fill="rgba(22,22,22,1)" shape-rendering="crispEdges"/>
  <rect x="9" y="9" width="2" height="1" fill="rgba(133,133,133,1)" shape-rendering="crispEdges"/>
  <rect x="11" y="9" width="1" height="1" fill="rgba(22,22,22,1)" shape-rendering="crispEdges"/>
  <rect x="12" y="9" width="3" height="1" fill="rgba(133,133,133,1)" shape-rendering="crispEdges"/>
  <rect x="15" y="9" width="1" height="1" fill="rgba(19,19,19,1)" shape-rendering="crispEdges"/>
  <rect x="16" y="9" width="1" height="1" fill="rgba(119,119,119,1)" shape-rendering="crispEdges"/>
  <rect x="17" y="9" width="1" height="1" fill="rgba(0,0,0,1)" shape-rendering="crispEdges"/>
  <rect x="1" y="10" width="1" height="1" fill="rgba(19,19,19,1)" shape-rendering="crispEdges"/>
  <rect x="2" y="10" width="1" height="1" fill="rgba(133,133,133,1)" shape-rendering="crispEdges"/>
  <rect x="3" y="10" width="1" height="1" fill="rgba(19,19,19,1)" shape-rendering="crispEdges"/>
  <rect x="4" y="10" width="1" height="1" fill="rgba(171,171,171,1)" shape-rendering="crispEdges"/>
  <rect x="5" y="10" width="1" height="1" fill="rgba(35,35,35,1)" shape-rendering="crispEdges"/>
  <rect x="6" y="10" width="1" height="1" fill="rgba(182,182,182,1)" shape-rendering="crispEdges"/>
  <rect x="7" y="10" width="1" height="1" fill="rgba(133,133,133,1)" shape-rendering="crispEdges"/>
  <rect x="8" y="10" width="1" height="1" fill="rgba(35,35,35,1)" shape-rendering="crispEdges"/>
  <rect x="9" y="10" width="1" height="1" fill="rgba(182,182,182,1)" shape-rendering="crispEdges"/>
  <rect x="10" y="10" width="1" height="1" fill="rgba(133,133,133,1)" shape-rendering="crispEdges"/>
  <rect x="11" y="10" width="1" height="1" fill="rgba(35,35,35,1)" shape-rendering="crispEdges"/>
  <rect x="12" y="10" width="1" height="1" fill="rgba(182,182,182,1)" shape-rendering="crispEdges"/>
  <rect x="13" y="10" width="1" height="1" fill="rgba(133,133,133,1)" shape-rendering="crispEdges"/>
  <rect x="14" y="10" width="1" height="1" fill="rgba(19,19,19,1)" shape-rendering="crispEdges"/>
  <rect x="15" y="10" width="1" height="1" fill="rgba(133,133,133,1)" shape-rendering="crispEdges"/>
  <rect x="16" y="10" width="2" height="1" fill="rgba(19,19,19,1)" shape-rendering="crispEdges"/>
  <rect x="1" y="11" width="1" height="1" fill="rgba(19,19,19,1)" shape-rendering="crispEdges"/>
  <rect x="2" y="11" width="1" height="1" fill="rgba(171,171,171,1)" shape-rendering="crispEdges"/>
  <rect x="3" y="11" width="1" height="1" fill="rgba(0,0,0,1)" shape-rendering="crispEdges"/>
  <rect x="6" y="11" width="4" height="1" fill="rgba(0,0,0,1)" shape-rendering="crispEdges"/>
  <rect x="12" y="11" width="2" height="1" fill="rgba(0,0,0,1)" shape-rendering="crispEdges"/>
  <rect x="14" y="11" width="2" height="1" fill="rgba(89,87,87,1)" shape-rendering="crispEdges"/>
  <rect x="16" y="11" width="1" height="1" fill="rgba(133,133,133,1)" shape-rendering="crispEdges"/>
  <rect x="17" y="11" width="1" height="1" fill="rgba(19,19,19,1)" shape-rendering="crispEdges"/>
  <rect x="1" y="12" width="1" height="1" fill="rgba(19,19,19,1)" shape-rendering="crispEdges"/>
  <rect x="2" y="12" width="1" height="1" fill="rgba(0,0,0,1)" shape-rendering="crispEdges"/>
  <rect x="14" y="12" width="1" height="1" fill="rgba(0,0,0,1)" shape-rendering="crispEdges"/>
  <rect x="15" y="12" width="1" height="1" fill="rgba(171,171,171,1)" shape-rendering="crispEdges"/>
  <rect x="16" y="12" width="1" height="1" fill="rgba(133,133,133,1)" shape-rendering="crispEdges"/>
  <rect x="17" y="12" width="1" height="1" fill="rgba(19,19,19,1)" shape-rendering="crispEdges"/>
  <rect x="1" y="13" width="1" height="1" fill="rgba(19,19,19,1)" shape-rendering="crispEdges"/>
  <rect x="2" y="13" width="1" height="1" fill="rgba(0,0,0,1)" shape-rendering="crispEdges"/>
  <rect x="14" y="13" width="1" height="1" fill="rgba(0,0,0,1)" shape-rendering="crispEdges"/>
  <rect x="15" y="13" width="1" height="1" fill="rgba(171,171,171,1)" shape-rendering="crispEdges"/>
  <rect x="16" y="13" width="1" height="1" fill="rgba(89,87,87,1)" shape-rendering="crispEdges"/>
  <rect x="17" y="13" width="1" height="1" fill="rgba(19,19,19,1)" shape-rendering="crispEdges"/>
  <rect x="1" y="14" width="2" height="1" fill="rgba(19,19,19,1)" shape-rendering="crispEdges"/>
  <rect x="3" y="14" width="1" height="1" fill="rgba(0,0,0,1)" shape-rendering="crispEdges"/>
  <rect x="12" y="14" width="2" height="1" fill="rgba(0,0,0,1)" shape-rendering="crispEdges"/>
  <rect x="14" y="14" width="1" height="1" fill="rgba(171,171,171,1)" shape-rendering="crispEdges"/>
  <rect x="15" y="14" width="2" height="1" fill="rgba(89,87,87,1)" shape-rendering="crispEdges"/>
  <rect x="17" y="14" width="1" height="1" fill="rgba(0,0,0,1)" shape-rendering="crispEdges"/>
  <rect x="1" y="15" width="1" height="1" fill="rgba(0,0,0,1)" shape-rendering="crispEdges"/>
  <rect x="2" y="15" width="1" height="1" fill="rgba(171,171,171,1)" shape-rendering="crispEdges"/>
  <rect x="3" y="15" width="11" height="1" fill="rgba(0,0,0,1)" shape-rendering="crispEdges"/>
  <rect x="14" y="15" width="2" height="1" fill="rgba(89,87,87,1)" shape-rendering="crispEdges"/>
  <rect x="16" y="15" width="1" height="1" fill="rgba(0,0,0,1)" shape-rendering="crispEdges"/>
  <rect x="1" y="16" width="1" height="1" fill="rgba(0,0,0,1)" shape-rendering="crispEdges"/>
  <rect x="2" y="16" width="1" height="1" fill="rgba(89,87,87,1)" shape-rendering="crispEdges"/>
  <rect x="3" y="16" width="2" height="1" fill="rgba(171,171,171,1)" shape-rendering="crispEdges"/>
  <rect x="5" y="16" width="7" height="1" fill="rgba(89,87,87,1)" shape-rendering="crispEdges"/>
  <rect x="12" y="16" width="1" height="1" fill="rgba(171,171,171,1)" shape-rendering="crispEdges"/>
  <rect x="13" y="16" width="1" height="1" fill="rgba(133,133,133,1)" shape-rendering="crispEdges"/>
  <rect x="14" y="16" width="1" height="1" fill="rgba(89,87,87,1)" shape-rendering="crispEdges"/>
  <rect x="15" y="16" width="1" height="1" fill="rgba(0,0,0,1)" shape-rendering="crispEdges"/>
  <rect x="2" y="17" width="1" height="1" fill="rgba(0,0,0,1)" shape-rendering="crispEdges"/>
  <rect x="3" y="17" width="1" height="1" fill="rgba(89,87,87,1)" shape-rendering="crispEdges"/>
  <rect x="4" y="17" width="1" height="1" fill="rgba(133,133,133,1)" shape-rendering="crispEdges"/>
  <rect x="5" y="17" width="7" height="1" fill="rgba(171,171,171,1)" shape-rendering="crispEdges"/>
  <rect x="12" y="17" width="1" height="1" fill="rgba(133,133,133,1)" shape-rendering="crispEdges"/>
  <rect x="13" y="17" width="1" height="1" fill="rgba(89,87,87,1)" shape-rendering="crispEdges"/>
  <rect x="14" y="17" width="1" height="1" fill="rgba(0,0,0,1)" shape-rendering="crispEdges"/>
  <rect x="3" y="18" width="1" height="1" fill="rgba(0,0,0,1)" shape-rendering="crispEdges"/>
  <rect x="4" y="18" width="9" height="1" fill="rgba(133,133,133,1)" shape-rendering="crispEdges"/>
  <rect x="13" y="18" width="1" height="1" fill="rgba(0,0,0,1)" shape-rendering="crispEdges"/>
  <rect x="4" y="19" width="9" height="1" fill="rgba(28,30,33,1)" shape-rendering="crispEdges"/>
</svg>