<?xml version="1.0" encoding="UTF-8" standalone="no"?>
<svg width="26" height="13" viewBox="0 0 26 13" xmlns="http://www.w3.org/2000/svg">
  <rect x="3" y="2" width="1" height="1" fill="rgba(33,18,10,1)" shape-rendering="crispEdges"/>
  <rect x="4" y="2" width="2" height="1" fill="rgba(144,107,71,1)" shape-rendering="crispEdges"/>
  <rect x="20" y="2" width="2" height="1" fill="rgba(144,107,71,1)" shape-rendering="crispEdges"/>
  <rect x="22" y="2" width="1" height="1" fill="rgba(33,18,10,1)" shape-rendering="crispEdges"/>
  <rect x="2" y="3" width="1" height="1" fill="rgba(33,18,10,1)" shape-rendering="crispEdges"/>
  <rect x="3" y="3" width="1" height="1" fill="rgba(144,107,71,1)" shape-rendering="crispEdges"/>
  <rect x="4" y="3" width="2" height="1" fill="rgba(133,95,57,1)" shape-rendering="crispEdges"/>
  <rect x="9" y="3" width="8" height="1" fill="rgba(33,18,10,1)" shape-rendering="crispEdges"/>
  <rect x="20" y="3" width="2" height="1" fill="rgba(133,95,57,1)" shape-rendering="crispEdges"/>
  <rect x="22" y="3" width="1" height="1" fill="rgba(144,107,71,1)" shape-rendering="crispEdges"/>
  <rect x="23" y="3" width="1" height="1" fill="rgba(33,18,10,1)" shape-rendering="crispEdges"/>
  <rect x="1" y="4" width="1" height="1" fill="rgba(33,18,10,1)" shape-rendering="crispEdges"/>
  <rect x="2" y="4" width="1" height="1" fill="rgba(144,107,71,1)" shape-rendering="crispEdges"/>
  <rect x="3" y="4" width="3" height="1" fill="rgba(133,95,57,1)" shape-rendering="crispEdges"/>
  <rect x="8" y="4" width="1" height="1" fill="rgba(33,18,10,1)" shape-rendering="crispEdges"/>
  <rect x="9" y="4" width="2" height="1" fill="rgba(144,107,71,1)" shape-rendering="crispEdges"/>
  <rect x="11" y="4" width="1" height="1" fill="rgba(69,42,27,1)" shape-rendering="crispEdges"/>
  <rect x="12" y="4" width="1" height="1" fill="rgba(176,138,99,1)" shape-rendering="crispEdges"/>
  <rect x="13" y="4" width="1" height="1" fill="rgba(69,42,27,1)" shape-rendering="crispEdges"/>
  <rect x="14" y="4" width="3" height="1" fill="rgba(144,107,71,1)" shape-rendering="crispEdges"/>
  <rect x="17" y="4" width="1" height="1" fill="rgba(33,18,10,1)" shape-rendering="crispEdges"/>
  <rect x="20" y="4" width="3" height="1" fill="rgba(133,95,57,1)" shape-rendering="crispEdges"/>
  <rect x="23" y="4" width="1" height="1" fill="rgba(144,107,71,1)" shape-rendering="crispEdges"/>
  <rect x="24" y="4" width="1" height="1" fill="rgba(33,18,10,1)" shape-rendering="crispEdges"/>
  <rect x="2" y="5" width="1" height="1" fill="rgba(33,18,10,1)" shape-rendering="crispEdges"/>
  <rect x="3" y="5" width="3" height="1" fill="rgba(133,95,57,1)" shape-rendering="crispEdges"/>
  <rect x="8" y="5" width="1" height="1" fill="rgba(33,18,10,1)" shape-rendering="crispEdges"/>
  <rect x="9" y="5" width="1" height="1" fill="rgba(144,107,71,1)" shape-rendering="crispEdges"/>
  <rect x="10" y="5" width="1" height="1" fill="rgba(133,95,57,1)" shape-rendering="crispEdges"/>
  <rect x="11" y="5" width="1" height="1" fill="rgba(69,42,27,1)" shape-rendering="crispEdges"/>
  <rect x="12" y="5" width="1" height="1" fill="rgba(146,116,85,1)" shape-rendering="crispEdges"/>
  <rect x="13" y="5" width="1" height="1" fill="rgba(69,42,27,1)" shape-rendering="crispEdges"/>
  <rect x="14" y="5" width="1" height="1" fill="rgba(133,95,57,1)" shape-rendering="crispEdges"/>
  <rect x="15" y="5" width="2" height="1" fill="rgba(144,107,71,1)" shape-rendering="crispEdges"/>
  <rect x="17" y="5" width="1" height="1" fill="rgba(33,18,10,1)" shape-rendering="crispEdges"/>
  <rect x="20" y="5" width="3" height="1" fill="rgba(133,95,57,1)" shape-rendering="crispEdges"/>
  <rect x="23" y="5" width="1" height="1" fill="rgba(33,18,10,1)" shape-rendering="crispEdges"/>
  <rect x="3" y="6" width="2" height="1" fill="rgba(33,18,10,1)" shape-rendering="crispEdges"/>
  <rect x="7" y="6" width="1" height="1" fill="rgba(33,18,10,1)" shape-rendering="crispEdges"/>
  <rect x="8" y="6" width="1" height="1" fill="rgba(144,107,71,1)" shape-rendering="crispEdges"/>
  <rect x="9" y="6" width="2" height="1" fill="rgba(133,95,57,1)" shape-rendering="crispEdges"/>
  <rect x="11" y="6" width="1" height="1" fill="rgba(69,42,27,1)" shape-rendering="crispEdges"/>
  <rect x="12" y="6" width="1" height="1" fill="rgba(146,116,85,1)" shape-rendering="crispEdges"/>
  <rect x="13" y="6" width="1" height="1" fill="rgba(69,42,27,1)" shape-rendering="crispEdges"/>
  <rect x="14" y="6" width="3" height="1" fill="rgba(133,95,57,1)" shape-rendering="crispEdges"/>
  <rect x="17" y="6" width="1" height="1" fill="rgba(144,107,71,1)" shape-rendering="crispEdges"/>
  <rect x="18" y="6" width="1" height="1" fill="rgba(33,18,10,1)" shape-rendering="crispEdges"/>
  <rect x="21" y="6" width="2" height="1" fill="rgba(33,18,10,1)" shape-rendering="crispEdges"/>
  <rect x="7" y="7" width="1" height="1" fill="rgba(33,18,10,1)" shape-rendering="crispEdges"/>
  <rect x="8" y="7" width="1" height="1" fill="rgba(133,95,57,1)" shape-rendering="crispEdges"/>
  <rect x="9" y="7" width="1" height="1" fill="rgba(144,107,71,1)" shape-rendering="crispEdges"/>
  <rect x="10" y="7" width="1" height="1" fill="rgba(133,95,57,1)" shape-rendering="crispEdges"/>
  <rect x="11" y="7" width="1" height="1" fill="rgba(43,27,18,1)" shape-rendering="crispEdges"/>
  <rect x="12" y="7" width="1" height="1" fill="rgba(176,138,99,1)" shape-rendering="crispEdges"/>
  <rect x="13" y="7" width="1" height="1" fill="rgba(43,27,18,1)" shape-rendering="crispEdges"/>
  <rect x="14" y="7" width="1" height="1" fill="rgba(133,95,57,1)" shape-rendering="crispEdges"/>
  <rect x="15" y="7" width="1" height="1" fill="rgba(144,107,71,1)" shape-rendering="crispEdges"/>
  <rect x="16" y="7" width="2" height="1" fill="rgba(133,95,57,1)" shape-rendering="crispEdges"/>
  <rect x="18" y="7" width="1" height="1" fill="rgba(33,18,10,1)" shape-rendering="crispEdges"/>
  <rect x="7" y="8" width="1" height="1" fill="rgba(33,18,10,1)" shape-rendering="crispEdges"/>
  <rect x="8" y="8" width="3" height="1" fill="rgba(133,95,57,1)" shape-rendering="crispEdges"/>
  <rect x="11" y="8" width="3" height="1" fill="rgba(43,27,18,1)" shape-rendering="crispEdges"/>
  <rect x="14" y="8" width="4" height="1" fill="rgba(133,95,57,1)" shape-rendering="crispEdges"/>
  <rect x="18" y="8" width="1" height="1" fill="rgba(33,18,10,1)" shape-rendering="crispEdges"/>
  <rect x="7" y="9" width="1" height="1" fill="rgba(33,18,10,1)" shape-rendering="crispEdges"/>
  <rect x="8" y="9" width="2" height="1" fill="rgba(90,63,49,1)" shape-rendering="crispEdges"/>
  <rect x="10" y="9" width="1" height="1" fill="rgba(43,27,18,1)" shape-rendering="crispEdges"/>
  <rect x="11" y="9" width="1" height="1" fill="rgba(133,101,84,1)" shape-rendering="crispEdges"/>
  <rect x="12" y="9" width="1" height="1" fill="rgba(71,48,36,1)" shape-rendering="crispEdges"/>
  <rect x="13" y="9" width="1" height="1" fill="rgba(133,101,84,1)" shape-rendering="crispEdges"/>
  <rect x="14" y="9" width="1" height="1" fill="rgba(43,27,18,1)" shape-rendering="crispEdges"/>
  <rect x="15" y="9" width="3" height="1" fill="rgba(90,63,49,1)" shape-rendering="crispEdges"/>
  <rect x="18" y="9" width="1" height="1" fill="rgba(33,18,10,1)" shape-rendering="crispEdges"/>
  <rect x="7" y="10" width="1" height="1" fill="rgba(33,18,10,1)" shape-rendering="crispEdges"/>
  <rect x="8" y="10" width="2" height="1" fill="rgba(69,42,27,1)" shape-rendering="crispEdges"/>
  <rect x="10" y="10" width="1" height="1" fill="rgba(43,27,18,1)" shape-rendering="crispEdges"/>
  <rect x="11" y="10" width="1" height="1" fill="rgba(90,63,49,1)" shape-rendering="crispEdges"/>
  <rect x="12" y="10" width="1" height="1" fill="rgba(133,101,84,1)" shape-rendering="crispEdges"/>
  <rect x="13" y="10" width="1" height="1" fill="rgba(90,63,49,1)" shape-rendering="crispEdges"/>
  <rect x="14" y="10" width="1" height="1" fill="rgba(43,27,18,1)" shape-rendering="crispEdges"/>
  <rect x="15" y="10" width="3" height="1" fill="rgba(69,42,27,1)" shape-rendering="crispEdges"/>
  <rect x="18" y="10" width="1" height="1" fill="rgba(33,18,10,1)" shape-rendering="crispEdges"/>
  <rect x="7" y="11" width="12" height="1" fill="rgba(33,18,10,1)" shape-rendering="crispEdges"/>
</svg>