<?xml version="1.0" encoding="UTF-8" standalone="no"?>
<svg width="20" height="21" viewBox="0 0 20 21" xmlns="http://www.w3.org/2000/svg">
  <rect x="1" y="0" width="1" height="1" fill="rgba(0,0,0,1)" shape-rendering="crispEdges"/>
  <rect x="18" y="0" width="1" height="1" fill="rgba(0,0,0,1)" shape-rendering="crispEdges"/>
  <rect x="0" y="1" width="2" height="1" fill="rgba(0,0,0,1)" shape-rendering="crispEdges"/>
  <rect x="18" y="1" width="2" height="1" fill="rgba(0,0,0,1)" shape-rendering="crispEdges"/>
  <rect x="0" y="2" width="1" height="1" fill="rgba(0,0,0,1)" shape-rendering="crispEdges"/>
  <rect x="1" y="2" width="1" height="1" fill="rgba(216,65,55,1)" shape-rendering="crispEdges"/>
  <rect x="2" y="2" width="1" height="1" fill="rgba(0,0,0,1)" shape-rendering="crispEdges"/>
  <rect x="6" y="2" width="9" height="1" fill="rgba(0,0,0,1)" shape-rendering="crispEdges"/>
  <rect x="16" y="2" width="2" height="1" fill="rgba(0,0,0,1)" shape-rendering="crispEdges"/>
  <rect x="18" y="2" width="1" height="1" fill="rgba(216,65,55,1)" shape-rendering="crispEdges"/>
  <rect x="19" y="2" width="1" height="1" fill="rgba(0,0,0,1)" shape-rendering="crispEdges"/>
  <rect x="0" y="3" width="1" height="1" fill="rgba(0,0,0,1)" shape-rendering="crispEdges"/>
  <rect x="1" y="3" width="2" height="1" fill="rgba(216,65,55,1)" shape-rendering="crispEdges"/>
  <rect x="3" y="3" width="3" height="1" fill="rgba(0,0,0,1)" shape-rendering="crispEdges"/>
  <rect x="6" y="3" width="1" height="1" fill="rgba(131,129,135,1)" shape-rendering="crispEdges"/>
  <rect x="7" y="3" width="1" height="1" fill="rgba(192,190,200,1)" shape-rendering="crispEdges"/>
  <rect x="8" y="3" width="1" height="1" fill="rgba(131,129,135,1)" shape-rendering="crispEdges"/>
  <rect x="9" y="3" width="2" height="1" fill="rgba(192,190,200,1)" shape-rendering="crispEdges"/>
  <rect x="11" y="3" width="1" height="1" fill="rgba(94,95,107,1)" shape-rendering="crispEdges"/>
  <rect x="12" y="3" width="1" height="1" fill="rgba(192,190,200,1)" shape-rendering="crispEdges"/>
  <rect x="13" y="3" width="1" height="1" fill="rgba(131,129,135,1)" shape-rendering="crispEdges"/>
  <rect x="14" y="3" width="2" height="1" fill="rgba(0,0,0,1)" shape-rendering="crispEdges"/>
  <rect x="16" y="3" width="3" height="1" fill="rgba(216,65,55,1)" shape-rendering="crispEdges"/>
  <rect x="19" y="3" width="1" height="1" fill="rgba(0,0,0,1)" shape-rendering="crispEdges"/>
  <rect x="0" y="4" width="1" height="1" fill="rgba(0,0,0,1)" shape-rendering="crispEdges"/>
  <rect x="1" y="4" width="1" height="1" fill="rgba(188,41,33,1)" shape-rendering="crispEdges"/>
  <rect x="2" y="4" width="3" height="1" fill="rgba(216,65,55,1)" shape-rendering="crispEdges"/>
  <rect x="5" y="4" width="1" height="1" fill="rgba(0,0,0,1)" shape-rendering="crispEdges"/>
  <rect x="6" y="4" width="1" height="1" fill="rgba(215,216,223,1)" shape-rendering="crispEdges"/>
  <rect x="7" y="4" width="1" height="1" fill="rgba(131,129,135,1)" shape-rendering="crispEdges"/>
  <rect x="8" y="4" width="2" height="1" fill="rgba(192,190,200,1)" shape-rendering="crispEdges"/>
  <rect x="10" y="4" width="1" height="1" fill="rgba(94,95,107,1)" shape-rendering="crispEdges"/>
  <rect x="11" y="4" width="2" height="1" fill="rgba(192,190,200,1)" shape-rendering="crispEdges"/>
  <rect x="13" y="4" width="1" height="1" fill="rgba(0,0,0,1)" shape-rendering="crispEdges"/>
  <rect x="14" y="4" width="2" height="1" fill="rgba(188,41,33,1)" shape-rendering="crispEdges"/>
  <rect x="16" y="4" width="3" height="1" fill="rgba(216,65,55,1)" shape-rendering="crispEdges"/>
  <rect x="19" y="4" width="1" height="1" fill="rgba(0,0,0,1)" shape-rendering="crispEdges"/>
  <rect x="0" y="5" width="1" height="1" fill="rgba(0,0,0,1)" shape-rendering="crispEdges"/>
  <rect x="1" y="5" width="3" height="1" fill="rgba(188,41,33,1)" shape-rendering="crispEdges"/>
  <rect x="4" y="5" width="1" height="1" fill="rgba(0,0,0,1)" shape-rendering="crispEdges"/>
  <rect x="5" y="5" width="2" height="1" fill="rgba(131,129,135,1)" shape-rendering="crispEdges"/>
  <rect x="7" y="5" width="1" height="1" fill="rgba(215,216,223,1)" shape-rendering="crispEdges"/>
  <rect x="8" y="5" width="1" height="1" fill="rgba(192,190,200,1)" shape-rendering="crispEdges"/>
  <rect x="9" y="5" width="1" height="1" fill="rgba(94,95,107,1)" shape-rendering="crispEdges"/>
  <rect x="10" y="5" width="2" height="1" fill="rgba(192,190,200,1)" shape-rendering="crispEdges"/>
  <rect x="12" y="5" width="1" height="1" fill="rgba(131,129,135,1)" shape-rendering="crispEdges"/>
  <rect x="13" y="5" width="1" height="1" fill="rgba(0,0,0,1)" shape-rendering="crispEdges"/>
  <rect x="14" y="5" width="2" height="1" fill="rgba(188,41,33,1)" shape-rendering="crispEdges"/>
  <rect x="16" y="5" width="1" height="1" fill="rgba(216,65,55,1)" shape-rendering="crispEdges"/>
  <rect x="17" y="5" width="1" height="1" fill="rgba(188,41,33,1)" shape-rendering="crispEdges"/>
  <rect x="18" y="5" width="1" height="1" fill="rgba(0,0,0,1)" shape-rendering="crispEdges"/>
  <rect x="1" y="6" width="1" height="1" fill="rgba(0,0,0,1)" shape-rendering="crispEdges"/>
  <rect x="2" y="6" width="1" height="1" fill="rgba(188,41,33,1)" shape-rendering="crispEdges"/>
  <rect x="3" y="6" width="2" height="1" fill="rgba(0,0,0,1)" shape-rendering="crispEdges"/>
  <rect x="5" y="6" width="1" height="1" fill="rgba(94,95,107,1)" shape-rendering="crispEdges"/>
  <rect x="6" y="6" width="1" height="1" fill="rgba(131,129,135,1)" shape-rendering="crispEdges"/>
  <rect x="7" y="6" width="2" height="1" fill="rgba(192,190,200,1)" shape-rendering="crispEdges"/>
  <rect x="9" y="6" width="1" height="1" fill="rgba(94,95,107,1)" shape-rendering="crispEdges"/>
  <rect x="10" y="6" width="2" height="1" fill="rgba(131,129,135,1)" shape-rendering="crispEdges"/>
  <rect x="12" y="6" width="1" height="1" fill="rgba(94,95,107,1)" shape-rendering="crispEdges"/>
  <rect x="13" y="6" width="2" height="1" fill="rgba(0,0,0,1)" shape-rendering="crispEdges"/>
  <rect x="15" y="6" width="3" height="1" fill="rgba(188,41,33,1)" shape-rendering="crispEdges"/>
  <rect x="18" y="6" width="1" height="1" fill="rgba(0,0,0,1)" shape-rendering="crispEdges"/>
  <rect x="1" y="7" width="3" height="1" fill="rgba(0,0,0,1)" shape-rendering="crispEdges"/>
  <rect x="4" y="7" width="1" height="1" fill="rgba(215,216,223,1)" shape-rendering="crispEdges"/>
  <rect x="5" y="7" width="1" height="1" fill="rgba(94,95,107,1)" shape-rendering="crispEdges"/>
  <rect x="6" y="7" width="1" height="1" fill="rgba(131,129,135,1)" shape-rendering="crispEdges"/>
  <rect x="7" y="7" width="2" height="1" fill="rgba(192,190,200,1)" shape-rendering="crispEdges"/>
  <rect x="9" y="7" width="3" height="1" fill="rgba(94,95,107,1)" shape-rendering="crispEdges"/>
  <rect x="12" y="7" width="2" height="1" fill="rgba(192,190,200,1)" shape-rendering="crispEdges"/>
  <rect x="14" y="7" width="5" height="1" fill="rgba(0,0,0,1)" shape-rendering="crispEdges"/>
  <rect x="2" y="8" width="1" height="1" fill="rgba(0,0,0,1)" shape-rendering="crispEdges"/>
  <rect x="3" y="8" width="1" height="1" fill="rgba(167,160,159,1)" shape-rendering="crispEdges"/>
  <rect x="4" y="8" width="2" height="1" fill="rgba(192,190,200,1)" shape-rendering="crispEdges"/>
  <rect x="6" y="8" width="1" height="1" fill="rgba(131,129,135,1)" shape-rendering="crispEdges"/>
  <rect x="7" y="8" width="2" height="1" fill="rgba(192,190,200,1)" shape-rendering="crispEdges"/>
  <rect x="9" y="8" width="1" height="1" fill="rgba(94,95,107,1)" shape-rendering="crispEdges"/>
  <rect x="10" y="8" width="3" height="1" fill="rgba(192,190,200,1)" shape-rendering="crispEdges"/>
  <rect x="13" y="8" width="1" height="1" fill="rgba(167,160,159,1)" shape-rendering="crispEdges"/>
  <rect x="14" y="8" width="1" height="1" fill="rgba(192,190,200,1)" shape-rendering="crispEdges"/>
  <rect x="15" y="8" width="2" height="1" fill="rgba(94,95,107,1)" shape-rendering="crispEdges"/>
  <rect x="17" y="8" width="1" height="1" fill="rgba(192,190,200,1)" shape-rendering="crispEdges"/>
  <rect x="18" y="8" width="1" height="1" fill="rgba(0,0,0,1)" shape-rendering="crispEdges"/>
  <rect x="2" y="9" width="1" height="1" fill="rgba(0,0,0,1)" shape-rendering="crispEdges"/>
  <rect x="3" y="9" width="1" height="1" fill="rgba(94,95,107,1)" shape-rendering="crispEdges"/>
  <rect x="4" y="9" width="2" height="1" fill="rgba(192,190,200,1)" shape-rendering="crispEdges"/>
  <rect x="6" y="9" width="1" height="1" fill="rgba(131,129,135,1)" shape-rendering="crispEdges"/>
  <rect x="7" y="9" width="2" height="1" fill="rgba(192,190,200,1)" shape-rendering="crispEdges"/>
  <rect x="9" y="9" width="1" height="1" fill="rgba(94,95,107,1)" shape-rendering="crispEdges"/>
  <rect x="10" y="9" width="3" height="1" fill="rgba(192,190,200,1)" shape-rendering="crispEdges"/>
  <rect x="13" y="9" width="1" height="1" fill="rgba(206,207,215,1)" shape-rendering="crispEdges"/>
  <rect x="14" y="9" width="1" height="1" fill="rgba(94,95,107,1)" shape-rendering="crispEdges"/>
  <rect x="15" y="9" width="1" height="1" fill="rgba(46,49,66,1)" shape-rendering="crispEdges"/>
  <rect x="16" y="9" width="1" height="1" fill="rgba(167,160,159,1)" shape-rendering="crispEdges"/>
  <rect x="17" y="9" width="1" height="1" fill="rgba(131,129,135,1)" shape-rendering="crispEdges"/>
  <rect x="18" y="9" width="1" height="1" fill="rgba(0,0,0,1)" shape-rendering="crispEdges"/>
  <rect x="1" y="10" width="1" height="1" fill="rgba(0,0,0,1)" shape-rendering="crispEdges"/>
  <rect x="2" y="10" width="2" height="1" fill="rgba(46,49,66,1)" shape-rendering="crispEdges"/>
  <rect x="4" y="10" width="3" height="1" fill="rgba(94,95,107,1)" shape-rendering="crispEdges"/>
  <rect x="7" y="10" width="3" height="1" fill="rgba(192,190,200,1)" shape-rendering="crispEdges"/>
  <rect x="10" y="10" width="4" height="1" fill="rgba(94,95,107,1)" shape-rendering="crispEdges"/>
  <rect x="14" y="10" width="1" height="1" fill="rgba(46,49,66,1)" shape-rendering="crispEdges"/>
  <rect x="15" y="10" width="2" height="1" fill="rgba(167,160,159,1)" shape-rendering="crispEdges"/>
  <rect x="17" y="10" width="1" height="1" fill="rgba(131,129,135,1)" shape-rendering="crispEdges"/>
  <rect x="18" y="10" width="1" height="1" fill="rgba(0,0,0,1)" shape-rendering="crispEdges"/>
  <rect x="1" y="11" width="1" height="1" fill="rgba(0,0,0,1)" shape-rendering="crispEdges"/>
  <rect x="2" y="11" width="1" height="1" fill="rgba(192,190,200,1)" shape-rendering="crispEdges"/>
  <rect x="3" y="11" width="4" height="1" fill="rgba(46,49,66,1)" shape-rendering="crispEdges"/>
  <rect x="7" y="11" width="3" height="1" fill="rgba(192,190,200,1)" shape-rendering="crispEdges"/>
  <rect x="10" y="11" width="4" height="1" fill="rgba(46,49,66,1)" shape-rendering="crispEdges"/>
  <rect x="14" y="11" width="2" height="1" fill="rgba(167,160,159,1)" shape-rendering="crispEdges"/>
  <rect x="16" y="11" width="1" height="1" fill="rgba(131,129,135,1)" shape-rendering="crispEdges"/>
  <rect x="17" y="11" width="1" height="1" fill="rgba(46,49,66,1)" shape-rendering="crispEdges"/>
  <rect x="18" y="11" width="1" height="1" fill="rgba(94,95,107,1)" shape-rendering="crispEdges"/>
  <rect x="19" y="11" width="1" height="1" fill="rgba(0,0,0,1)" shape-rendering="crispEdges"/>
  <rect x="1" y="12" width="1" height="1" fill="rgba(0,0,0,1)" shape-rendering="crispEdges"/>
  <rect x="2" y="12" width="1" height="1" fill="rgba(192,190,200,1)" shape-rendering="crispEdges"/>
  <rect x="3" y="12" width="1" height="1" fill="rgba(46,49,66,1)" shape-rendering="crispEdges"/>
  <rect x="6" y="12" width="1" height="1" fill="rgba(46,49,66,1)" shape-rendering="crispEdges"/>
  <rect x="7" y="12" width="3" height="1" fill="rgba(94,95,107,1)" shape-rendering="crispEdges"/>
  <rect x="10" y="12" width="1" height="1" fill="rgba(46,49,66,1)" shape-rendering="crispEdges"/>
  <rect x="13" y="12" width="1" height="1" fill="rgba(46,49,66,1)" shape-rendering="crispEdges"/>
  <rect x="14" y="12" width="1" height="1" fill="rgba(167,160,159,1)" shape-rendering="crispEdges"/>
  <rect x="15" y="12" width="1" height="1" fill="rgba(192,190,200,1)" shape-rendering="crispEdges"/>
  <rect x="16" y="12" width="1" height="1" fill="rgba(94,95,107,1)" shape-rendering="crispEdges"/>
  <rect x="17" y="12" width="1" height="1" fill="rgba(46,49,66,1)" shape-rendering="crispEdges"/>
  <rect x="18" y="12" width="1" height="1" fill="rgba(131,129,135,1)" shape-rendering="crispEdges"/>
  <rect x="19" y="12" width="1" height="1" fill="rgba(0,0,0,1)" shape-rendering="crispEdges"/>
  <rect x="1" y="13" width="1" height="1" fill="rgba(0,0,0,1)" shape-rendering="crispEdges"/>
  <rect x="2" y="13" width="2" height="1" fill="rgba(46,49,66,1)" shape-rendering="crispEdges"/>
  <rect x="6" y="13" width="5" height="1" fill="rgba(46,49,66,1)" shape-rendering="crispEdges"/>
  <rect x="13" y="13" width="1" height="1" fill="rgba(46,49,66,1)" shape-rendering="crispEdges"/>
  <rect x="14" y="13" width="1" height="1" fill="rgba(0,0,0,1)" shape-rendering="crispEdges"/>
  <rect x="15" y="13" width="2" height="1" fill="rgba(46,49,66,1)" shape-rendering="crispEdges"/>
  <rect x="17" y="13" width="1" height="1" fill="rgba(131,129,135,1)" shape-rendering="crispEdges"/>
  <rect x="18" y="13" width="1" height="1" fill="rgba(94,95,107,1)" shape-rendering="crispEdges"/>
  <rect x="19" y="13" width="1" height="1" fill="rgba(0,0,0,1)" shape-rendering="crispEdges"/>
  <rect x="1" y="14" width="1" height="1" fill="rgba(0,0,0,1)" shape-rendering="crispEdges"/>
  <rect x="2" y="14" width="1" height="1" fill="rgba(131,129,135,1)" shape-rendering="crispEdges"/>
  <rect x="3" y="14" width="1" height="1" fill="rgba(46,49,66,1)" shape-rendering="crispEdges"/>
  <rect x="13" y="14" width="1" height="1" fill="rgba(46,49,66,1)" shape-rendering="crispEdges"/>
  <rect x="14" y="14" width="1" height="1" fill="rgba(94,95,107,1)" shape-rendering="crispEdges"/>
  <rect x="15" y="14" width="3" height="1" fill="rgba(131,129,135,1)" shape-rendering="crispEdges"/>
  <rect x="18" y="14" width="1" height="1" fill="rgba(94,95,107,1)" shape-rendering="crispEdges"/>
  <rect x="19" y="14" width="1" height="1" fill="rgba(0,0,0,1)" shape-rendering="crispEdges"/>
  <rect x="1" y="15" width="1" height="1" fill="rgba(0,0,0,1)" shape-rendering="crispEdges"/>
  <rect x="2" y="15" width="1" height="1" fill="rgba(94,95,107,1)" shape-rendering="crispEdges"/>
  <rect x="3" y="15" width="1" height="1" fill="rgba(46,49,66,1)" shape-rendering="crispEdges"/>
  <rect x="13" y="15" width="1" height="1" fill="rgba(46,49,66,1)" shape-rendering="crispEdges"/>
  <rect x="14" y="15" width="5" height="1" fill="rgba(94,95,107,1)" shape-rendering="crispEdges"/>
  <rect x="19" y="15" width="1" height="1" fill="rgba(0,0,0,1)" shape-rendering="crispEdges"/>
  <rect x="1" y="16" width="1" height="1" fill="rgba(0,0,0,1)" shape-rendering="crispEdges"/>
  <rect x="2" y="16" width="2" height="1" fill="rgba(94,95,107,1)" shape-rendering="crispEdges"/>
  <rect x="4" y="16" width="1" height="1" fill="rgba(46,49,66,1)" shape-rendering="crispEdges"/>
  <rect x="12" y="16" width="1" height="1" fill="rgba(46,49,66,1)" shape-rendering="crispEdges"/>
  <rect x="13" y="16" width="6" height="1" fill="rgba(94,95,107,1)" shape-rendering="crispEdges"/>
  <rect x="19" y="16" width="1" height="1" fill="rgba(0,0,0,1)" shape-rendering="crispEdges"/>
  <rect x="2" y="17" width="1" height="1" fill="rgba(0,0,0,1)" shape-rendering="crispEdges"/>
  <rect x="3" y="17" width="1" height="1" fill="rgba(94,95,107,1)" shape-rendering="crispEdges"/>
  <rect x="4" y="17" width="1" height="1" fill="rgba(46,49,66,1)" shape-rendering="crispEdges"/>
  <rect x="12" y="17" width="1" height="1" fill="rgba(46,49,66,1)" shape-rendering="crispEdges"/>
  <rect x="13" y="17" width="3" height="1" fill="rgba(94,95,107,1)" shape-rendering="crispEdges"/>
  <rect x="16" y="17" width="3" height="1" fill="rgba(0,0,0,1)" shape-rendering="crispEdges"/>
  <rect x="2" y="18" width="1" height="1" fill="rgba(0,0,0,1)" shape-rendering="crispEdges"/>
  <rect x="3" y="18" width="1" height="1" fill="rgba(94,95,107,1)" shape-rendering="crispEdges"/>
  <rect x="4" y="18" width="1" height="1" fill="rgba(46,49,66,1)" shape-rendering="crispEdges"/>
  <rect x="12" y="18" width="1" height="1" fill="rgba(46,49,66,1)" shape-rendering="crispEdges"/>
  <rect x="13" y="18" width="1" height="1" fill="rgba(94,95,107,1)" shape-rendering="crispEdges"/>
  <rect x="14" y="18" width="2" height="1" fill="rgba(0,0,0,1)" shape-rendering="crispEdges"/>
  <rect x="3" y="19" width="1" height="1" fill="rgba(0,0,0,1)" shape-rendering="crispEdges"/>
  <rect x="4" y="19" width="1" height="1" fill="rgba(46,49,66,1)" shape-rendering="crispEdges"/>
  <rect x="12" y="19" width="1" height="1" fill="rgba(46,49,66,1)" shape-rendering="crispEdges"/>
  <rect x="13" y="19" width="1" height="1" fill="rgba(0,0,0,1)" shape-rendering="crispEdges"/>
  <rect x="4" y="20" width="1" height="1" fill="rgba(0,0,0,1)" shape-rendering="crispEdges"/>
  <rect x="12" y="20" width="2" height="1" fill="rgba(0,0,0,1)" shape-rendering="crispEdges"/>
</svg>