<?xml version="1.0" encoding="UTF-8" standalone="no"?>
<svg width="32" height="32" viewBox="0 0 32 32" xmlns="http://www.w3.org/2000/svg">
  <rect x="12" y="5" width="8" height="1" fill="rgba(0,0,0,1)" shape-rendering="crispEdges"/>
  <rect x="10" y="6" width="2" height="1" fill="rgba(0,0,0,1)" shape-rendering="crispEdges"/>
  <rect x="12" y="6" width="3" height="1" fill="rgba(255,255,255,1)" shape-rendering="crispEdges"/>
  <rect x="15" y="6" width="5" height="1" fill="rgba(90,105,136,1)" shape-rendering="crispEdges"/>
  <rect x="20" y="6" width="2" height="1" fill="rgba(0,0,0,1)" shape-rendering="crispEdges"/>
  <rect x="9" y="7" width="1" height="1" fill="rgba(0,0,0,1)" shape-rendering="crispEdges"/>
  <rect x="10" y="7" width="7" height="1" fill="rgba(255,255,255,1)" shape-rendering="crispEdges"/>
  <rect x="17" y="7" width="5" height="1" fill="rgba(90,105,136,1)" shape-rendering="crispEdges"/>
  <rect x="22" y="7" width="1" height="1" fill="rgba(0,0,0,1)" shape-rendering="crispEdges"/>
  <rect x="8" y="8" width="1" height="1" fill="rgba(0,0,0,1)" shape-rendering="crispEdges"/>
  <rect x="9" y="8" width="9" height="1" fill="rgba(255,255,255,1)" shape-rendering="crispEdges"/>
  <rect x="18" y="8" width="5" height="1" fill="rgba(90,105,136,1)" shape-rendering="crispEdges"/>
  <rect x="23" y="8" width="1" height="1" fill="rgba(0,0,0,1)" shape-rendering="crispEdges"/>
  <rect x="7" y="9" width="1" height="1" fill="rgba(0,0,0,1)" shape-rendering="crispEdges"/>
  <rect x="8" y="9" width="10" height="1" fill="rgba(255,255,255,1)" shape-rendering="crispEdges"/>
  <rect x="18" y="9" width="6" height="1" fill="rgba(90,105,136,1)" shape-rendering="crispEdges"/>
  <rect x="24" y="9" width="1" height="1" fill="rgba(0,0,0,1)" shape-rendering="crispEdges"/>
  <rect x="7" y="10" width="1" height="1" fill="rgba(0,0,0,1)" shape-rendering="crispEdges"/>
  <rect x="8" y="10" width="11" height="1" fill="rgba(255,255,255,1)" shape-rendering="crispEdges"/>
  <rect x="19" y="10" width="5" height="1" fill="rgba(90,105,136,1)" shape-rendering="crispEdges"/>
  <rect x="24" y="10" width="1" height="1" fill="rgba(0,0,0,1)" shape-rendering="crispEdges"/>
  <rect x="7" y="11" width="1" height="1" fill="rgba(0,0,0,1)" shape-rendering="crispEdges"/>
  <rect x="8" y="11" width="11" height="1" fill="rgba(255,255,255,1)" shape-rendering="crispEdges"/>
  <rect x="19" y="11" width="5" height="1" fill="rgba(90,105,136,1)" shape-rendering="crispEdges"/>
  <rect x="24" y="11" width="1" height="1" fill="rgba(0,0,0,1)" shape-rendering="crispEdges"/>
  <rect x="6" y="12" width="1" height="1" fill="rgba(0,0,0,1)" shape-rendering="crispEdges"/>
  <rect x="7" y="12" width="12" height="1" fill="rgba(255,255,255,1)" shape-rendering="crispEdges"/>
  <rect x="19" y="12" width="6" height="1" fill="rgba(90,105,136,1)" shape-rendering="crispEdges"/>
  <rect x="25" y="12" width="1" height="1" fill="rgba(0,0,0,1)" shape-rendering="crispEdges"/>
  <rect x="6" y="13" width="1" height="1" fill="rgba(0,0,0,1)" shape-rendering="crispEdges"/>
  <rect x="7" y="13" width="12" height="1" fill="rgba(255,255,255,1)" shape-rendering="crispEdges"/>
  <rect x="19" y="13" width="6" height="1" fill="rgba(90,105,136,1)" shape-rendering="crispEdges"/>
  <rect x="25" y="13" width="1" height="1" fill="rgba(0,0,0,1)" shape-rendering="crispEdges"/>
  <rect x="6" y="14" width="1" height="1" fill="rgba(0,0,0,1)" shape-rendering="crispEdges"/>
  <rect x="7" y="14" width="8" height="1" fill="rgba(255,255,255,1)" shape-rendering="crispEdges"/>
  <rect x="15" y="14" width="1" height="1" fill="rgba(90,105,136,1)" shape-rendering="crispEdges"/>
  <rect x="16" y="14" width="2" height="1" fill="rgba(255,255,255,1)" shape-rendering="crispEdges"/>
  <rect x="18" y="14" width="7" height="1" fill="rgba(90,105,136,1)" shape-rendering="crispEdges"/>
  <rect x="25" y="14" width="1" height="1" fill="rgba(0,0,0,1)" shape-rendering="crispEdges"/>
  <rect x="6" y="15" width="1" height="1" fill="rgba(0,0,0,1)" shape-rendering="crispEdges"/>
  <rect x="7" y="15" width="6" height="1" fill="rgba(255,255,255,1)" shape-rendering="crispEdges"/>
  <rect x="13" y="15" width="3" height="1" fill="rgba(90,105,136,1)" shape-rendering="crispEdges"/>
  <rect x="16" y="15" width="2" height="1" fill="rgba(255,255,255,1)" shape-rendering="crispEdges"/>
  <rect x="18" y="15" width="7" height="1" fill="rgba(90,105,136,1)" shape-rendering="crispEdges"/>
  <rect x="25" y="15" width="1" height="1" fill="rgba(0,0,0,1)" shape-rendering="crispEdges"/>
  <rect x="6" y="16" width="1" height="1" fill="rgba(0,0,0,1)" shape-rendering="crispEdges"/>
  <rect x="7" y="16" width="5" height="1" fill="rgba(255,255,255,1)" shape-rendering="crispEdges"/>
  <rect x="12" y="16" width="3" height="1" fill="rgba(90,105,136,1)" shape-rendering="crispEdges"/>
  <rect x="15" y="16" width="2" height="1" fill="rgba(0,0,0,0.2)" shape-rendering="crispEdges"/>
  <rect x="17" y="16" width="1" height="1" fill="rgba(255,255,255,1)" shape-rendering="crispEdges"/>
  <rect x="18" y="16" width="7" height="1" fill="rgba(90,105,136,1)" shape-rendering="crispEdges"/>
  <rect x="25" y="16" width="1" height="1" fill="rgba(0,0,0,1)" shape-rendering="crispEdges"/>
  <rect x="6" y="17" width="1" height="1" fill="rgba(0,0,0,1)" shape-rendering="crispEdges"/>
  <rect x="7" y="17" width="1" height="1" fill="rgba(90,105,136,1)" shape-rendering="crispEdges"/>
  <rect x="8" y="17" width="2" height="1" fill="rgba(255,255,255,1)" shape-rendering="crispEdges"/>
  <rect x="10" y="17" width="3" height="1" fill="rgba(90,105,136,1)" shape-rendering="crispEdges"/>
  <rect x="13" y="17" width="2" height="1" fill="rgba(0,0,0,0.2)" shape-rendering="crispEdges"/>
  <rect x="17" y="17" width="2" height="1" fill="rgba(255,255,255,1)" shape-rendering="crispEdges"/>
  <rect x="19" y="17" width="6" height="1" fill="rgba(90,105,136,1)" shape-rendering="crispEdges"/>
  <rect x="25" y="17" width="1" height="1" fill="rgba(0,0,0,1)" shape-rendering="crispEdges"/>
  <rect x="6" y="18" width="1" height="1" fill="rgba(0,0,0,1)" shape-rendering="crispEdges"/>
  <rect x="7" y="18" width="4" height="1" fill="rgba(90,105,136,1)" shape-rendering="crispEdges"/>
  <rect x="12" y="18" width="1" height="1" fill="rgba(0,0,0,0.2)" shape-rendering="crispEdges"/>
  <rect x="17" y="18" width="1" height="1" fill="rgba(0,0,0,0.2)" shape-rendering="crispEdges"/>
  <rect x="18" y="18" width="1" height="1" fill="rgba(255,255,255,1)" shape-rendering="crispEdges"/>
  <rect x="19" y="18" width="6" height="1" fill="rgba(90,105,136,1)" shape-rendering="crispEdges"/>
  <rect x="25" y="18" width="1" height="1" fill="rgba(0,0,0,1)" shape-rendering="crispEdges"/>
  <rect x="6" y="19" width="1" height="1" fill="rgba(0,0,0,1)" shape-rendering="crispEdges"/>
  <rect x="7" y="19" width="1" height="1" fill="rgba(90,105,136,1)" shape-rendering="crispEdges"/>
  <rect x="9" y="19" width="3" height="1" fill="rgba(0,0,0,0.2)" shape-rendering="crispEdges"/>
  <rect x="18" y="19" width="1" height="1" fill="rgba(0,0,0,0.2)" shape-rendering="crispEdges"/>
  <rect x="19" y="19" width="6" height="1" fill="rgba(90,105,136,1)" shape-rendering="crispEdges"/>
  <rect x="25" y="19" width="1" height="1" fill="rgba(0,0,0,1)" shape-rendering="crispEdges"/>
  <rect x="6" y="20" width="1" height="1" fill="rgba(0,0,0,1)" shape-rendering="crispEdges"/>
  <rect x="7" y="20" width="1" height="1" fill="rgba(90,105,136,1)" shape-rendering="crispEdges"/>
  <rect x="19" y="20" width="6" height="1" fill="rgba(90,105,136,1)" shape-rendering="crispEdges"/>
  <rect x="25" y="20" width="1" height="1" fill="rgba(0,0,0,1)" shape-rendering="crispEdges"/>
  <rect x="6" y="21" width="1" height="1" fill="rgba(0,0,0,1)" shape-rendering="crispEdges"/>
  <rect x="7" y="21" width="1" height="1" fill="rgba(90,105,136,1)" shape-rendering="crispEdges"/>
  <rect x="19" y="21" width="6" height="1" fill="rgba(90,105,136,1)" shape-rendering="crispEdges"/>
  <rect x="25" y="21" width="1" height="1" fill="rgba(0,0,0,1)" shape-rendering="crispEdges"/>
  <rect x="6" y="22" width="1" height="1" fill="rgba(0,0,0,1)" shape-rendering="crispEdges"/>
  <rect x="7" y="22" width="2" height="1" fill="rgba(90,105,136,1)" shape-rendering="crispEdges"/>
  <rect x="19" y="22" width="1" height="1" fill="rgba(0,0,0,1)" shape-rendering="crispEdges"/>
  <rect x="20" y="22" width="4" height="1" fill="rgba(90,105,136,1)" shape-rendering="crispEdges"/>
  <rect x="24" y="22" width="1" height="1" fill="rgba(0,0,0,1)" shape-rendering="crispEdges"/>
  <rect x="7" y="23" width="1" height="1" fill="rgba(0,0,0,1)" shape-rendering="crispEdges"/>
  <rect x="8" y="23" width="2" height="1" fill="rgba(90,105,136,1)" shape-rendering="crispEdges"/>
  <rect x="11" y="23" width="1" height="1" fill="rgba(0,0,0,1)" shape-rendering="crispEdges"/>
  <rect x="19" y="23" width="1" height="1" fill="rgba(0,0,0,1)" shape-rendering="crispEdges"/>
  <rect x="20" y="23" width="4" height="1" fill="rgba(90,105,136,1)" shape-rendering="crispEdges"/>
  <rect x="24" y="23" width="1" height="1" fill="rgba(0,0,0,1)" shape-rendering="crispEdges"/>
  <rect x="7" y="24" width="1" height="1" fill="rgba(0,0,0,1)" shape-rendering="crispEdges"/>
  <rect x="8" y="24" width="3" height="1" fill="rgba(90,105,136,1)" shape-rendering="crispEdges"/>
  <rect x="11" y="24" width="1" height="1" fill="rgba(0,0,0,1)" shape-rendering="crispEdges"/>
  <rect x="19" y="24" width="1" height="1" fill="rgba(0,0,0,1)" shape-rendering="crispEdges"/>
  <rect x="20" y="24" width="4" height="1" fill="rgba(90,105,136,1)" shape-rendering="crispEdges"/>
  <rect x="24" y="24" width="1" height="1" fill="rgba(0,0,0,1)" shape-rendering="crispEdges"/>
  <rect x="7" y="25" width="1" height="1" fill="rgba(0,0,0,1)" shape-rendering="crispEdges"/>
  <rect x="8" y="25" width="2" height="1" fill="rgba(90,105,136,1)" shape-rendering="crispEdges"/>
  <rect x="10" y="25" width="2" height="1" fill="rgba(0,0,0,1)" shape-rendering="crispEdges"/>
  <rect x="19" y="25" width="1" height="1" fill="rgba(0,0,0,1)" shape-rendering="crispEdges"/>
  <rect x="20" y="25" width="2" height="1" fill="rgba(90,105,136,1)" shape-rendering="crispEdges"/>
  <rect x="22" y="25" width="2" height="1" fill="rgba(0,0,0,1)" shape-rendering="crispEdges"/>
  <rect x="7" y="26" width="4" height="1" fill="rgba(0,0,0,1)" shape-rendering="crispEdges"/>
  <rect x="19" y="26" width="3" height="1" fill="rgba(0,0,0,1)" shape-rendering="crispEdges"/>
</svg>