<?xml version="1.0" encoding="UTF-8" standalone="no"?>
<svg width="32" height="32" viewBox="0 0 32 32" xmlns="http://www.w3.org/2000/svg">
  <rect x="11" y="7" width="10" height="1" fill="rgba(0,0,0,1)" shape-rendering="crispEdges"/>
  <rect x="9" y="8" width="2" height="1" fill="rgba(0,0,0,1)" shape-rendering="crispEdges"/>
  <rect x="11" y="8" width="7" height="1" fill="rgba(255,255,255,1)" shape-rendering="crispEdges"/>
  <rect x="18" y="8" width="3" height="1" fill="rgba(90,105,136,1)" shape-rendering="crispEdges"/>
  <rect x="21" y="8" width="2" height="1" fill="rgba(0,0,0,1)" shape-rendering="crispEdges"/>
  <rect x="7" y="9" width="2" height="1" fill="rgba(0,0,0,1)" shape-rendering="crispEdges"/>
  <rect x="9" y="9" width="11" height="1" fill="rgba(255,255,255,1)" shape-rendering="crispEdges"/>
  <rect x="20" y="9" width="3" height="1" fill="rgba(90,105,136,1)" shape-rendering="crispEdges"/>
  <rect x="23" y="9" width="1" height="1" fill="rgba(0,0,0,1)" shape-rendering="crispEdges"/>
  <rect x="6" y="10" width="1" height="1" fill="rgba(0,0,0,1)" shape-rendering="crispEdges"/>
  <rect x="7" y="10" width="14" height="1" fill="rgba(255,255,255,1)" shape-rendering="crispEdges"/>
  <rect x="21" y="10" width="3" height="1" fill="rgba(90,105,136,1)" shape-rendering="crispEdges"/>
  <rect x="24" y="10" width="1" height="1" fill="rgba(0,0,0,1)" shape-rendering="crispEdges"/>
  <rect x="6" y="11" width="1" height="1" fill="rgba(0,0,0,1)" shape-rendering="crispEdges"/>
  <rect x="7" y="11" width="14" height="1" fill="rgba(255,255,255,1)" shape-rendering="crispEdges"/>
  <rect x="21" y="11" width="4" height="1" fill="rgba(90,105,136,1)" shape-rendering="crispEdges"/>
  <rect x="25" y="11" width="1" height="1" fill="rgba(0,0,0,1)" shape-rendering="crispEdges"/>
  <rect x="6" y="12" width="1" height="1" fill="rgba(0,0,0,1)" shape-rendering="crispEdges"/>
  <rect x="7" y="12" width="14" height="1" fill="rgba(255,255,255,1)" shape-rendering="crispEdges"/>
  <rect x="21" y="12" width="4" height="1" fill="rgba(90,105,136,1)" shape-rendering="crispEdges"/>
  <rect x="25" y="12" width="1" height="1" fill="rgba(0,0,0,1)" shape-rendering="crispEdges"/>
  <rect x="6" y="13" width="1" height="1" fill="rgba(0,0,0,1)" shape-rendering="crispEdges"/>
  <rect x="7" y="13" width="14" height="1" fill="rgba(255,255,255,1)" shape-rendering="crispEdges"/>
  <rect x="21" y="13" width="5" height="1" fill="rgba(90,105,136,1)" shape-rendering="crispEdges"/>
  <rect x="26" y="13" width="1" height="1" fill="rgba(0,0,0,1)" shape-rendering="crispEdges"/>
  <rect x="6" y="14" width="1" height="1" fill="rgba(0,0,0,1)" shape-rendering="crispEdges"/>
  <rect x="7" y="14" width="13" height="1" fill="rgba(255,255,255,1)" shape-rendering="crispEdges"/>
  <rect x="20" y="14" width="6" height="1" fill="rgba(90,105,136,1)" shape-rendering="crispEdges"/>
  <rect x="26" y="14" width="1" height="1" fill="rgba(0,0,0,1)" shape-rendering="crispEdges"/>
  <rect x="7" y="15" width="1" height="1" fill="rgba(0,0,0,1)" shape-rendering="crispEdges"/>
  <rect x="8" y="15" width="10" height="1" fill="rgba(255,255,255,1)" shape-rendering="crispEdges"/>
  <rect x="18" y="15" width="8" height="1" fill="rgba(90,105,136,1)" shape-rendering="crispEdges"/>
  <rect x="26" y="15" width="1" height="1" fill="rgba(0,0,0,1)" shape-rendering="crispEdges"/>
  <rect x="8" y="16" width="1" height="1" fill="rgba(0,0,0,1)" shape-rendering="crispEdges"/>
  <rect x="9" y="16" width="17" height="1" fill="rgba(90,105,136,1)" shape-rendering="crispEdges"/>
  <rect x="26" y="16" width="1" height="1" fill="rgba(0,0,0,1)" shape-rendering="crispEdges"/>
  <rect x="8" y="17" width="1" height="1" fill="rgba(0,0,0,1)" shape-rendering="crispEdges"/>
  <rect x="9" y="17" width="1" height="1" fill="rgba(90,105,136,1)" shape-rendering="crispEdges"/>
  <rect x="10" y="17" width="1" height="1" fill="rgba(0,0,0,0.2)" shape-rendering="crispEdges"/>
  <rect x="11" y="17" width="1" height="1" fill="rgba(255,255,255,1)" shape-rendering="crispEdges"/>
  <rect x="12" y="17" width="14" height="1" fill="rgba(90,105,136,1)" shape-rendering="crispEdges"/>
  <rect x="26" y="17" width="1" height="1" fill="rgba(0,0,0,1)" shape-rendering="crispEdges"/>
  <rect x="8" y="18" width="1" height="1" fill="rgba(0,0,0,1)" shape-rendering="crispEdges"/>
  <rect x="9" y="18" width="1" height="1" fill="rgba(90,105,136,1)" shape-rendering="crispEdges"/>
  <rect x="10" y="18" width="1" height="1" fill="rgba(0,0,0,0.2)" shape-rendering="crispEdges"/>
  <rect x="11" y="18" width="3" height="1" fill="rgba(255,255,255,1)" shape-rendering="crispEdges"/>
  <rect x="14" y="18" width="12" height="1" fill="rgba(90,105,136,1)" shape-rendering="crispEdges"/>
  <rect x="26" y="18" width="1" height="1" fill="rgba(0,0,0,1)" shape-rendering="crispEdges"/>
  <rect x="8" y="19" width="1" height="1" fill="rgba(0,0,0,1)" shape-rendering="crispEdges"/>
  <rect x="9" y="19" width="1" height="1" fill="rgba(90,105,136,1)" shape-rendering="crispEdges"/>
  <rect x="11" y="19" width="4" height="1" fill="rgba(0,0,0,0.2)" shape-rendering="crispEdges"/>
  <rect x="15" y="19" width="1" height="1" fill="rgba(255,255,255,1)" shape-rendering="crispEdges"/>
  <rect x="16" y="19" width="10" height="1" fill="rgba(90,105,136,1)" shape-rendering="crispEdges"/>
  <rect x="26" y="19" width="1" height="1" fill="rgba(0,0,0,1)" shape-rendering="crispEdges"/>
  <rect x="8" y="20" width="1" height="1" fill="rgba(0,0,0,1)" shape-rendering="crispEdges"/>
  <rect x="9" y="20" width="1" height="1" fill="rgba(90,105,136,1)" shape-rendering="crispEdges"/>
  <rect x="15" y="20" width="5" height="1" fill="rgba(0,0,0,0.2)" shape-rendering="crispEdges"/>
  <rect x="20" y="20" width="2" height="1" fill="rgba(90,105,136,1)" shape-rendering="crispEdges"/>
  <rect x="23" y="20" width="3" height="1" fill="rgba(90,105,136,1)" shape-rendering="crispEdges"/>
  <rect x="26" y="20" width="1" height="1" fill="rgba(0,0,0,1)" shape-rendering="crispEdges"/>
  <rect x="8" y="21" width="1" height="1" fill="rgba(0,0,0,1)" shape-rendering="crispEdges"/>
  <rect x="9" y="21" width="1" height="1" fill="rgba(90,105,136,1)" shape-rendering="crispEdges"/>
  <rect x="20" y="21" width="2" height="1" fill="rgba(90,105,136,1)" shape-rendering="crispEdges"/>
  <rect x="24" y="21" width="2" height="1" fill="rgba(90,105,136,1)" shape-rendering="crispEdges"/>
  <rect x="26" y="21" width="1" height="1" fill="rgba(0,0,0,1)" shape-rendering="crispEdges"/>
  <rect x="8" y="22" width="1" height="1" fill="rgba(0,0,0,1)" shape-rendering="crispEdges"/>
  <rect x="9" y="22" width="1" height="1" fill="rgba(90,105,136,1)" shape-rendering="crispEdges"/>
  <rect x="20" y="22" width="2" height="1" fill="rgba(90,105,136,1)" shape-rendering="crispEdges"/>
  <rect x="24" y="22" width="1" height="1" fill="rgba(90,105,136,1)" shape-rendering="crispEdges"/>
  <rect x="25" y="22" width="1" height="1" fill="rgba(0,0,0,1)" shape-rendering="crispEdges"/>
  <rect x="8" y="23" width="1" height="1" fill="rgba(0,0,0,1)" shape-rendering="crispEdges"/>
  <rect x="20" y="23" width="1" height="1" fill="rgba(90,105,136,1)" shape-rendering="crispEdges"/>
  <rect x="23" y="23" width="2" height="1" fill="rgba(90,105,136,1)" shape-rendering="crispEdges"/>
  <rect x="25" y="23" width="1" height="1" fill="rgba(0,0,0,1)" shape-rendering="crispEdges"/>
  <rect x="22" y="24" width="2" height="1" fill="rgba(90,105,136,1)" shape-rendering="crispEdges"/>
  <rect x="24" y="24" width="1" height="1" fill="rgba(0,0,0,1)" shape-rendering="crispEdges"/>
  <rect x="21" y="25" width="3" height="1" fill="rgba(0,0,0,1)" shape-rendering="crispEdges"/>
</svg>