<?xml version="1.0" encoding="UTF-8" standalone="no"?>
<svg width="8" height="28" viewBox="0 0 8 28" xmlns="http://www.w3.org/2000/svg">
  <rect x="0" y="0" width="1" height="1" fill="rgba(169,157,143,1)" shape-rendering="crispEdges"/>
  <rect x="1" y="0" width="1" height="1" fill="rgba(63,56,42,1)" shape-rendering="crispEdges"/>
  <rect x="3" y="0" width="1" height="1" fill="rgba(169,157,143,1)" shape-rendering="crispEdges"/>
  <rect x="4" y="0" width="1" height="1" fill="rgba(63,56,42,1)" shape-rendering="crispEdges"/>
  <rect x="6" y="0" width="1" height="1" fill="rgba(169,157,143,1)" shape-rendering="crispEdges"/>
  <rect x="7" y="0" width="1" height="1" fill="rgba(63,56,42,1)" shape-rendering="crispEdges"/>
  <rect x="0" y="1" width="1" height="1" fill="rgba(169,157,143,1)" shape-rendering="crispEdges"/>
  <rect x="1" y="1" width="1" height="1" fill="rgba(63,56,42,1)" shape-rendering="crispEdges"/>
  <rect x="3" y="1" width="1" height="1" fill="rgba(169,157,143,1)" shape-rendering="crispEdges"/>
  <rect x="4" y="1" width="1" height="1" fill="rgba(63,56,42,1)" shape-rendering="crispEdges"/>
  <rect x="6" y="1" width="1" height="1" fill="rgba(169,157,143,1)" shape-rendering="crispEdges"/>
  <rect x="7" y="1" width="1" height="1" fill="rgba(63,56,42,1)" shape-rendering="crispEdges"/>
  <rect x="0" y="2" width="1" height="1" fill="rgba(169,157,143,1)" shape-rendering="crispEdges"/>
  <rect x="1" y="2" width="1" height="1" fill="rgba(63,56,42,1)" shape-rendering="crispEdges"/>
  <rect x="3" y="2" width="1" height="1" fill="rgba(169,157,143,1)" shape-rendering="crispEdges"/>
  <rect x="4" y="2" width="1" height="1" fill="rgba(63,56,42,1)" shape-rendering="crispEdges"/>
  <rect x="6" y="2" width="1" height="1" fill="rgba(169,157,143,1)" shape-rendering="crispEdges"/>
  <rect x="7" y="2" width="1" height="1" fill="rgba(63,56,42,1)" shape-rendering="crispEdges"/>
  <rect x="0" y="3" width="1" height="1" fill="rgba(169,157,143,1)" shape-rendering="crispEdges"/>
  <rect x="1" y="3" width="1" height="1" fill="rgba(63,56,42,1)" shape-rendering="crispEdges"/>
  <rect x="3" y="3" width="1" height="1" fill="rgba(169,157,143,1)" shape-rendering="crispEdges"/>
  <rect x="4" y="3" width="1" height="1" fill="rgba(63,56,42,1)" shape-rendering="crispEdges"/>
  <rect x="6" y="3" width="1" height="1" fill="rgba(169,157,143,1)" shape-rendering="crispEdges"/>
  <rect x="7" y="3" width="1" height="1" fill="rgba(63,56,42,1)" shape-rendering="crispEdges"/>
  <rect x="0" y="4" width="1" height="1" fill="rgba(169,157,143,1)" shape-rendering="crispEdges"/>
  <rect x="1" y="4" width="1" height="1" fill="rgba(63,56,42,1)" shape-rendering="crispEdges"/>
  <rect x="3" y="4" width="1" height="1" fill="rgba(169,157,143,1)" shape-rendering="crispEdges"/>
  <rect x="4" y="4" width="1" height="1" fill="rgba(63,56,42,1)" shape-rendering="crispEdges"/>
  <rect x="6" y="4" width="1" height="1" fill="rgba(169,157,143,1)" shape-rendering="crispEdges"/>
  <rect x="7" y="4" width="1" height="1" fill="rgba(63,56,42,1)" shape-rendering="crispEdges"/>
  <rect x="0" y="5" width="1" height="1" fill="rgba(122,107,91,1)" shape-rendering="crispEdges"/>
  <rect x="1" y="5" width="1" height="1" fill="rgba(63,56,42,1)" shape-rendering="crispEdges"/>
  <rect x="3" y="5" width="1" height="1" fill="rgba(122,107,91,1)" shape-rendering="crispEdges"/>
  <rect x="4" y="5" width="1" height="1" fill="rgba(63,56,42,1)" shape-rendering="crispEdges"/>
  <rect x="6" y="5" width="1" height="1" fill="rgba(122,107,91,1)" shape-rendering="crispEdges"/>
  <rect x="7" y="5" width="1" height="1" fill="rgba(63,56,42,1)" shape-rendering="crispEdges"/>
  <rect x="0" y="6" width="1" height="1" fill="rgba(122,107,91,1)" shape-rendering="crispEdges"/>
  <rect x="1" y="6" width="1" height="1" fill="rgba(63,56,42,1)" shape-rendering="crispEdges"/>
  <rect x="2" y="6" width="2" height="1" fill="rgba(122,107,91,1)" shape-rendering="crispEdges"/>
  <rect x="4" y="6" width="1" height="1" fill="rgba(63,56,42,1)" shape-rendering="crispEdges"/>
  <rect x="5" y="6" width="2" height="1" fill="rgba(122,107,91,1)" shape-rendering="crispEdges"/>
  <rect x="7" y="6" width="1" height="1" fill="rgba(63,56,42,1)" shape-rendering="crispEdges"/>
  <rect x="0" y="7" width="8" height="1" fill="rgba(63,56,42,1)" shape-rendering="crispEdges"/>
  <rect x="3" y="8" width="1" height="1" fill="rgba(122,107,91,1)" shape-rendering="crispEdges"/>
  <rect x="4" y="8" width="1" height="1" fill="rgba(63,56,42,1)" shape-rendering="crispEdges"/>
  <rect x="3" y="9" width="1" height="1" fill="rgba(122,107,91,1)" shape-rendering="crispEdges"/>
  <rect x="4" y="9" width="1" height="1" fill="rgba(63,56,42,1)" shape-rendering="crispEdges"/>
  <rect x="3" y="10" width="1" height="1" fill="rgba(122,107,91,1)" shape-rendering="crispEdges"/>
  <rect x="4" y="10" width="1" height="1" fill="rgba(63,56,42,1)" shape-rendering="crispEdges"/>
  <rect x="3" y="11" width="1" height="1" fill="rgba(122,107,91,1)" shape-rendering="crispEdges"/>
  <rect x="4" y="11" width="1" height="1" fill="rgba(63,56,42,1)" shape-rendering="crispEdges"/>
  <rect x="3" y="12" width="1" height="1" fill="rgba(122,107,91,1)" shape-rendering="crispEdges"/>
  <rect x="4" y="12" width="1" height="1" fill="rgba(63,56,42,1)" shape-rendering="crispEdges"/>
  <rect x="3" y="13" width="1" height="1" fill="rgba(122,107,91,1)" shape-rendering="crispEdges"/>
  <rect x="4" y="13" width="1" height="1" fill="rgba(63,56,42,1)" shape-rendering="crispEdges"/>
  <rect x="3" y="14" width="1" height="1" fill="rgba(122,107,91,1)" shape-rendering="crispEdges"/>
  <rect x="4" y="14" width="1" height="1" fill="rgba(63,56,42,1)" shape-rendering="crispEdges"/>
  <rect x="3" y="15" width="1" height="1" fill="rgba(122,107,91,1)" shape-rendering="crispEdges"/>
  <rect x="4" y="15" width="1" height="1" fill="rgba(63,56,42,1)" shape-rendering="crispEdges"/>
  <rect x="3" y="16" width="1" height="1" fill="rgba(122,107,91,1)" shape-rendering="crispEdges"/>
  <rect x="4" y="16" width="1" height="1" fill="rgba(63,56,42,1)" shape-rendering="crispEdges"/>
  <rect x="3" y="17" width="1" height="1" fill="rgba(122,107,91,1)" shape-rendering="crispEdges"/>
  <rect x="4" y="17" width="1" height="1" fill="rgba(63,56,42,1)" shape-rendering="crispEdges"/>
  <rect x="3" y="18" width="1" height="1" fill="rgba(122,107,91,1)" shape-rendering="crispEdges"/>
  <rect x="4" y="18" width="1" height="1" fill="rgba(63,56,42,1)" shape-rendering="crispEdges"/>
  <rect x="3" y="19" width="1" height="1" fill="rgba(122,107,91,1)" shape-rendering="crispEdges"/>
  <rect x="4" y="19" width="1" height="1" fill="rgba(63,56,42,1)" shape-rendering="crispEdges"/>
  <rect x="3" y="20" width="1" height="1" fill="rgba(122,107,91,1)" shape-rendering="crispEdges"/>
  <rect x="4" y="20" width="1" height="1" fill="rgba(63,56,42,1)" shape-rendering="crispEdges"/>
  <rect x="3" y="21" width="1" height="1" fill="rgba(122,107,91,1)" shape-rendering="crispEdges"/>
  <rect x="4" y="21" width="1" height="1" fill="rgba(63,56,42,1)" shape-rendering="crispEdges"/>
  <rect x="3" y="22" width="1" height="1" fill="rgba(122,107,91,1)" shape-rendering="crispEdges"/>
  <rect x="4" y="22" width="1" height="1" fill="rgba(63,56,42,1)" shape-rendering="crispEdges"/>
  <rect x="3" y="23" width="1" height="1" fill="rgba(122,107,91,1)" shape-rendering="crispEdges"/>
  <rect x="4" y="23" width="1" height="1" fill="rgba(63,56,42,1)" shape-rendering="crispEdges"/>
  <rect x="3" y="24" width="1" height="1" fill="rgba(122,107,91,1)" shape-rendering="crispEdges"/>
  <rect x="4" y="24" width="1" height="1" fill="rgba(63,56,42,1)" shape-rendering="crispEdges"/>
  <rect x="3" y="25" width="1" height="1" fill="rgba(122,107,91,1)" shape-rendering="crispEdges"/>
  <rect x="4" y="25" width="1" height="1" fill="rgba(63,56,42,1)" shape-rendering="crispEdges"/>
  <rect x="3" y="26" width="1" height="1" fill="rgba(122,107,91,1)" shape-rendering="crispEdges"/>
  <rect x="4" y="26" width="1" height="1" fill="rgba(63,56,42,1)" shape-rendering="crispEdges"/>
  <rect x="3" y="27" width="1" height="1" fill="rgba(122,107,91,1)" shape-rendering="crispEdges"/>
  <rect x="4" y="27" width="1" height="1" fill="rgba(63,56,42,1)" shape-rendering="crispEdges"/>
</svg>