<?xml version="1.0" encoding="UTF-8" standalone="no"?>
<svg width="9" height="10" viewBox="0 0 9 10" xmlns="http://www.w3.org/2000/svg">
  <rect x="0" y="0" width="9" height="1" fill="rgba(0,0,0,1)" shape-rendering="crispEdges"/>
  <rect x="0" y="1" width="1" height="1" fill="rgba(0,0,0,1)" shape-rendering="crispEdges"/>
  <rect x="1" y="1" width="7" height="1" fill="rgba(51,61,78,1)" shape-rendering="crispEdges"/>
  <rect x="8" y="1" width="1" height="1" fill="rgba(0,0,0,1)" shape-rendering="crispEdges"/>
  <rect x="0" y="2" width="1" height="1" fill="rgba(0,0,0,1)" shape-rendering="crispEdges"/>
  <rect x="1" y="2" width="1" height="1" fill="rgba(51,61,78,1)" shape-rendering="crispEdges"/>
  <rect x="2" y="2" width="5" height="1" fill="rgba(63,75,94,1)" shape-rendering="crispEdges"/>
  <rect x="7" y="2" width="1" height="1" fill="rgba(51,61,78,1)" shape-rendering="crispEdges"/>
  <rect x="8" y="2" width="1" height="1" fill="rgba(0,0,0,1)" shape-rendering="crispEdges"/>
  <rect x="0" y="3" width="1" height="1" fill="rgba(0,0,0,1)" shape-rendering="crispEdges"/>
  <rect x="1" y="3" width="1" height="1" fill="rgba(51,61,78,1)" shape-rendering="crispEdges"/>
  <rect x="2" y="3" width="5" height="1" fill="rgba(63,75,94,1)" shape-rendering="crispEdges"/>
  <rect x="7" y="3" width="1" height="1" fill="rgba(51,61,78,1)" shape-rendering="crispEdges"/>
  <rect x="8" y="3" width="1" height="1" fill="rgba(0,0,0,1)" shape-rendering="crispEdges"/>
  <rect x="0" y="4" width="1" height="1" fill="rgba(0,0,0,1)" shape-rendering="crispEdges"/>
  <rect x="1" y="4" width="1" height="1" fill="rgba(51,61,78,1)" shape-rendering="crispEdges"/>
  <rect x="2" y="4" width="5" height="1" fill="rgba(63,75,94,1)" shape-rendering="crispEdges"/>
  <rect x="7" y="4" width="1" height="1" fill="rgba(51,61,78,1)" shape-rendering="crispEdges"/>
  <rect x="8" y="4" width="1" height="1" fill="rgba(0,0,0,1)" shape-rendering="crispEdges"/>
  <rect x="0" y="5" width="1" height="1" fill="rgba(0,0,0,1)" shape-rendering="crispEdges"/>
  <rect x="1" y="5" width="1" height="1" fill="rgba(51,61,78,1)" shape-rendering="crispEdges"/>
  <rect x="2" y="5" width="5" height="1" fill="rgba(63,75,94,1)" shape-rendering="crispEdges"/>
  <rect x="7" y="5" width="1" height="1" fill="rgba(51,61,78,1)" shape-rendering="crispEdges"/>
  <rect x="8" y="5" width="1" height="1" fill="rgba(0,0,0,1)" shape-rendering="crispEdges"/>
  <rect x="0" y="6" width="1" height="1" fill="rgba(0,0,0,1)" shape-rendering="crispEdges"/>
  <rect x="1" y="6" width="1" height="1" fill="rgba(51,61,78,1)" shape-rendering="crispEdges"/>
  <rect x="2" y="6" width="5" height="1" fill="rgba(63,75,94,1)" shape-rendering="crispEdges"/>
  <rect x="7" y="6" width="1" height="1" fill="rgba(51,61,78,1)" shape-rendering="crispEdges"/>
  <rect x="8" y="6" width="1" height="1" fill="rgba(0,0,0,1)" shape-rendering="crispEdges"/>
  <rect x="1" y="7" width="1" height="1" fill="rgba(0,0,0,1)" shape-rendering="crispEdges"/>
  <rect x="2" y="7" width="1" height="1" fill="rgba(51,61,78,1)" shape-rendering="crispEdges"/>
  <rect x="3" y="7" width="3" height="1" fill="rgba(63,75,94,1)" shape-rendering="crispEdges"/>
  <rect x="6" y="7" width="1" height="1" fill="rgba(51,61,78,1)" shape-rendering="crispEdges"/>
  <rect x="7" y="7" width="1" height="1" fill="rgba(0,0,0,1)" shape-rendering="crispEdges"/>
  <rect x="1" y="8" width="1" height="1" fill="rgba(0,0,0,1)" shape-rendering="crispEdges"/>
  <rect x="2" y="8" width="5" height="1" fill="rgba(51,61,78,1)" shape-rendering="crispEdges"/>
  <rect x="7" y="8" width="1" height="1" fill="rgba(0,0,0,1)" shape-rendering="crispEdges"/>
  <rect x="2" y="9" width="5" height="1" fill="rgba(0,0,0,1)" shape-rendering="crispEdges"/>
</svg>