<?xml version="1.0" encoding="UTF-8" standalone="no"?>
<svg width="6" height="15" viewBox="0 0 6 15" xmlns="http://www.w3.org/2000/svg">
  <rect x="4" y="0" width="1" height="1" fill="rgba(0,0,0,1)" shape-rendering="crispEdges"/>
  <rect x="3" y="1" width="2" height="1" fill="rgba(0,0,0,1)" shape-rendering="crispEdges"/>
  <rect x="2" y="2" width="1" height="1" fill="rgba(0,0,0,1)" shape-rendering="crispEdges"/>
  <rect x="3" y="2" width="1" height="1" fill="rgba(243,255,255,1)" shape-rendering="crispEdges"/>
  <rect x="4" y="2" width="1" height="1" fill="rgba(0,0,0,1)" shape-rendering="crispEdges"/>
  <rect x="1" y="3" width="1" height="1" fill="rgba(0,0,0,1)" shape-rendering="crispEdges"/>
  <rect x="2" y="3" width="2" height="1" fill="rgba(243,255,255,1)" shape-rendering="crispEdges"/>
  <rect x="4" y="3" width="1" height="1" fill="rgba(0,0,0,1)" shape-rendering="crispEdges"/>
  <rect x="1" y="4" width="1" height="1" fill="rgba(0,0,0,1)" shape-rendering="crispEdges"/>
  <rect x="2" y="4" width="2" height="1" fill="rgba(202,225,241,1)" shape-rendering="crispEdges"/>
  <rect x="4" y="4" width="1" height="1" fill="rgba(0,0,0,1)" shape-rendering="crispEdges"/>
  <rect x="1" y="5" width="1" height="1" fill="rgba(0,0,0,1)" shape-rendering="crispEdges"/>
  <rect x="2" y="5" width="2" height="1" fill="rgba(202,225,241,1)" shape-rendering="crispEdges"/>
  <rect x="4" y="5" width="1" height="1" fill="rgba(0,0,0,1)" shape-rendering="crispEdges"/>
  <rect x="1" y="6" width="1" height="1" fill="rgba(0,0,0,1)" shape-rendering="crispEdges"/>
  <rect x="2" y="6" width="2" height="1" fill="rgba(202,225,241,1)" shape-rendering="crispEdges"/>
  <rect x="4" y="6" width="1" height="1" fill="rgba(0,0,0,1)" shape-rendering="crispEdges"/>
  <rect x="1" y="7" width="1" height="1" fill="rgba(0,0,0,1)" shape-rendering="crispEdges"/>
  <rect x="2" y="7" width="2" height="1" fill="rgba(202,225,241,1)" shape-rendering="crispEdges"/>
  <rect x="4" y="7" width="1" height="1" fill="rgba(0,0,0,1)" shape-rendering="crispEdges"/>
  <rect x="1" y="8" width="4" height="1" fill="rgba(0,0,0,1)" shape-rendering="crispEdges"/>
  <rect x="0" y="9" width="1" height="1" fill="rgba(0,0,0,1)" shape-rendering="crispEdges"/>
  <rect x="1" y="9" width="2" height="1" fill="rgba(144,128,152,1)" shape-rendering="crispEdges"/>
  <rect x="3" y="9" width="2" height="1" fill="rgba(177,163,187,1)" shape-rendering="crispEdges"/>
  <rect x="5" y="9" width="1" height="1" fill="rgba(0,0,0,1)" shape-rendering="crispEdges"/>
  <rect x="1" y="10" width="4" height="1" fill="rgba(0,0,0,1)" shape-rendering="crispEdges"/>
  <rect x="2" y="11" width="1" height="1" fill="rgba(62,21,11,1)" shape-rendering="crispEdges"/>
  <rect x="3" y="11" width="1" height="1" fill="rgba(82,30,17,1)" shape-rendering="crispEdges"/>
  <rect x="2" y="12" width="1" height="1" fill="rgba(62,21,11,1)" shape-rendering="crispEdges"/>
  <rect x="3" y="12" width="1" height="1" fill="rgba(82,30,17,1)" shape-rendering="crispEdges"/>
  <rect x="2" y="13" width="1" height="1" fill="rgba(62,21,11,1)" shape-rendering="crispEdges"/>
  <rect x="3" y="13" width="1" height="1" fill="rgba(82,30,17,1)" shape-rendering="crispEdges"/>
  <rect x="2" y="14" width="1" height="1" fill="rgba(62,21,11,1)" shape-rendering="crispEdges"/>
  <rect x="3" y="14" width="1" height="1" fill="rgba(82,30,17,1)" shape-rendering="crispEdges"/>
</svg>